<mxfile host="65bd71144e">
    <diagram id="OSr34YkGUNvmRSUSInUV" name="Page-1">
        <mxGraphModel dx="687" dy="673" grid="0" gridSize="10" guides="1" tooltips="1" connect="1" arrows="1" fold="1" page="1" pageScale="1" pageWidth="1100" pageHeight="850" background="#ffffff" math="0" shadow="0">
            <root>
                <mxCell id="0"/>
                <mxCell id="1" parent="0"/>
                <mxCell id="2" value="" style="shape=image;verticalLabelPosition=bottom;labelBackgroundColor=default;verticalAlign=top;aspect=fixed;imageAspect=0;image=data:image/png,iVBORw0KGgoAAAANSUhEUgAAAggAAAGnCAYAAADSXq/FAAAAAXNSR0IArs4c6QAAIABJREFUeF7s3QWYdVXZP/6FL8aLlCDd/dItISldAtIlDdLSnaIowkMp3RKSwgOSEgIPLSEgKlLSnRK+vvq/Psv/5ncYz8ycmTmxzz73uq65Zuacvdde615rr/t791j/+te//pWiBQWCAkGBoEBQICgQFKihwFgBEGI/BAWCAkGBoEBQICjQlwIBEGJPBAWCAkGBoEBQICjwHxQIgBCbIigQFAgKBAWCAkGBAAixB4ICQYGgQFAgKBAUGJwCoUEYnEZxRVAgKBAUCAoEBXqOAgEQem7JY8JBgaBAUCAoEBQYnAIBEAanUVwRFAgKBAWCAkGBnqNAAISeW/KYcFAgKBAUCAoEBQanQACEwWkUVwQFggJBgaBAUKDnKBAAoeeWPCYcFAgKBAWCAkGBwSkQAGFwGsUVQYGgQFAgKBAU6DkKBEDouSWPCQcFggJBgaBAUGBwCgRAGJxGcUVQICgQFAgKBAV6jgIBEHpuyWPCQYGgQFAgKBAUGJwCARAGp1FcERRoiAK//OUv08svv9zQtXFR9Smw6667prHHHrv6E40ZVpYCARAqu7QxsXZT4Jvf/Gb6/ve/3+7HxvNKSIHDDz88PfDAA+m///u/Szi6GFJQoDEKBEBojE5xVVBgUAoACHfddVcaa6yxBr02Lqg2Bb71rW+lX//61wEQqr3MlZ9dAITKL3FMsF0UCIDQLkqX/zkBEMq/RjHCwSkQAGFwGsUVQYGGKBAAoSEy9cRFARB6YpkrP8kACJVf4phguygQAKFdlC7/cwIglH+NYoSDUyAAwuA0iiuCAg1RIABCQ2TqiYsCIPTEMld+kgEQKr/EMcF2UaAVAOFf//pXHn4nHR//7//+L/3Xf/1Xu8hYiecEQKjEMvb8JAIg9PwWCAI0iwLNBAiffvppOuqoo9IFF1yQPvjggzTttNOmgw46KK2xxhrpC1/4Qr9Ddu0666yTNt1007TUUkul3/zmN2mllVZK00wzTd17Dj744PTII4+ka6655nPf//3vf0/nnXdeOvnkk9OLL76YvvrVr6YNN9ww7bbbbmmKKabo9/mvv/56+vnPf55+9atfpX/+859p1llnTQceeGCab775SgsyfvzjH6ennnoqHXnkkQPObSj7JADCUKgV15aVAgEQyroyMa6uo0AzAcKYMWMyGFhvvfXS/PPPn37xi1+kN998M1155ZXpvffeS3PMMUdmwBjbjDPOmP7xj3+k559/Pv+97777phVXXDG9/fbbaffdd08nnHBC2myzzRLQ8eSTT6aPP/44zTzzzGn66adPm2yySbrzzjvTDTfckF599dU022yzpammmirdfPPN6bvf/W5afPHF0worrJCefvrpdPbZZ6eddtop7bHHHumZZ55JX/va19Jrr72WaBjmnnvuNMEEE6RDDjkknX766WnttddOU089dQYZk046ab53uummSw8//HCex+STT55mn332DDzuu+++/Nv4zENfQAuthXnSojz++ONpkkkmSQDI17/+9TThhBOmP/zhD/mz//mf/8nXPvbYY3kO4447bppzzjnzeH73u9+lL3/5y3nOH330UVpwwQXz9++8806+XzNGdAHGjLEZLQBCM6gYfXSaAgEQOr0C8fzKUKCZAOHaa69NG220UWbsG2+8cWaAmJrEO0cccUTae++9M6M96aSTcnKmd999N5177rnpqquuykwfg8Jkr7766rTccsul/fbbL+nz+uuvT//7v/+b5plnnszMjz766HwNEAJQ+H3cccdlYOF+zBNTxbzXXHPNfC+NgPt89v7776dPPvkk7bjjjmnbbbfNDHaxxRZLZ5xxRpp44onTTTfdlP785z+n5ZdfPj/7nHPOyeYS89luu+3SFltskZZeeum8B/QNINA2/P73v88AyDxpIbbeeus00UQTZRrod7zxxssgZcopp8z0+PDDD9P++++faD70jWYyGdKeAAf6cg3QRRMDNMl8qfkemAmAUJlXMSbSJAoEQGgSIaOboEAzAQJplxT+29/+NkvXGCKJnpofM15iiSWyxuCSSy7JjJZW4dlnn82mgrnmmiszR5oAjPX888/PKX9J/z/4wQ+ylgAzp2lggsAoMfKHHnooHXbYYVnq3mCDDbKUPnr06PxbAwyAjL322itfN9lkk2WA4m/t+OOPz1oBzz7mmGPyZxgzpv/oo4/mZwIggAkQcvvtt2dTxAILLJDv8zkmD0AAOzvssEMGMquvvnoGJ/p1HbPIVlttlVZZZZW02mqrZbCi0XoYI1MB4HLFFVfk683X89xvjvfee2++F/had91101prrZVmmGGGAAjxCgcF+lAgAEJsiaBAkyjQTIDwt7/9LfseAAEYKekWAGDfp5L3NxU5af25557LkvN3vvOdtPPOO2f1OjPATDPNlBk9rQI/gn322SffO8sssyT9f+lLX8oSPHDwxhtvZPPFNttsk7NBAg8+u+yyy7L/AzW/75544okMEHxPw+E37QQtwUUXXZRBiT5POeWULMnrg2aCacHzfY6pX3zxxel73/teuuOOO7KvxMorr5ylen3yl/C3540//viZgZvbaaedls0i22+/ff4e2AAugAq/9Y9eNAXzzjtvBjfMFcDAmWeemQEWUw16Ah0XXnhh+va3v51BlPGHBqFJL0J0UxkKBECozFLGRDpNgWYCBMyW1EvqX3TRRTOTJ/1jsIDDj370o2xvZx4gmVPz33jjjVkd3xcgnHXWWdlPgCkCo2QG8Bnp2W8+CC+88EKWuAuAgImSxEndGPorr7ySttxyy+zbgEFzgsRwAZECIBjjqquumqX3Qw89NDN62gUAhjYAuKHix5CZGoAP6YgXXnjhzMQxfRoSgIQ2oh5AIOkXAIEpgvmDGYLmBAgxH/2+9NJLnwEEzzz11FM/AwhAkucBOjQT5sF0EwCh029QPL9sFAiAULYVifF0LQWaCRAwbGp0mgIOfZgsZnjiiSdmZo5ZY/q33HJLZqpU+cDCOOOMk00MfAgKyXyhhRbKDJoE/te//jVf85WvfCUzZKaAegCBJoA2goTPyRDD5dgosoKTINBQDyBgvgDDW2+9lZ0BVbdk8+cTMGrUqAwMABhzoN3A3AGCQoPQFyBwNMTECw1CX4BgbjQHHBQvvfTSDFD++Mc/Zo0K8wya0RbUAgRgh+bj7rvvzlEL5saXIQBC1756MfAWUSAAQosIG932HgWaCRBQj7qc6huzxZR563Om458geoEKn8bgL3/5S7bbY+B+s/djfJz5/M0JD2jgyMgsAVhg0pgtAELix0g9h+Of70jUIgZ492PyHASZJqj4MV9MWASB5wAdnsHWzxShD+M2TlEVRbSC/j0fQwZARCjo98EHH8x+Dvo2L6YPf+vHHEVL6E9fIhJ87nu+GYCBvszp/vvvz/3os3DE9L373YtOTB6LLLJI1ohwhASUzKOgn/6b0SKKoRlUjD46TYEACJ1egXh+ZSjQbIBQGcL04EQCIPTgoldwygEQKrioMaXOUCAAQmfoXsanBkAo46rEmIZKgQAIQ6VYXB8U6IcCARBiaxQUCIAQe6EKFAiAUIVVjDmUggIBEEqxDKUYRACEUixDDGKEFAiAMEICxu1BgYICARBiL4QGIfZAlSgQAKFKqxlz6SgFAARZCTtZebGjBIiHf0YBIZyyVIoGiRYU6FYKBEDo1pWLcZeOAgCCePoACKVbmrYPSA4GuSsCILSd9PHAJlIgAEITiRld9TYFwsTQ2+tfO/vwQYi9UAUKBECowirGHEpBgQAIpViGUgwiAEIpliEGMUIKBEAYIQHj9qBAQYEACLEXCgoEQIi9UAUKBECowirGHEpBgQAIpViGUgwiAEIpliEGMUIKBEAYIQHj9qBAaBBiD/SlQACE2BNVoEAAhCqsYsyhFBQIDUIplqEUgwiAUIpliEGMkAIBEEZIwLg9KFBWDYJyzksuuWRaYIEFmrZIyjkL31NZUunm448/vm7fv/jFL3LlyWWXXfaz75WkVvlxmmmmyVUaq9wCIFR5dXtnbgEQemetY6YtpsBINQhKJSulrPk93njj5bLFn3zySfriF7+YSxNrShsrpex6JY8xW58puayJvffZeeedlxZeeOFcGlkZY5/94x//yH26xjM+/fTTz/rGwH3nt6bssn49u8jtcNlll6WHH344bbjhhumaa65JBx54YL7GGPXv5wtf+ELaf//9M4iQMMg4Pe/tt9/OpZ8feOCBPKYq54sIgNDily26bwsFAiC0hczxkF6gwEgBwocffpiuuuqq9PLLL6c333wzHXDAAenKK69MTz/9dGaw66yzTmasN910U7r77rszU6YhWHnlldMdd9yR7r///szcF1poobTCCiukCy+8MC266KLpuuuuS8stt1xacMEF04033pj+/Oc/p/XXXz8/i0Q/zjjjpPXWWy+DiBtuuCG99NJLaaaZZkrzzjtvvnaNNdb4LOFPARAwfmMDBG677bY8ngknnDCDCWO6+OKL0zvvvJPH+/7776fVV189z2vrrbdOhx56aNpll10+AzxV3BsBEKq4qr03pwAIvbfmMeMWUaAeQCA9Y9qk5eKnv8cDBXvssUeWwNddd93MWDH3jTbaKEvd9957bzrssMPST3/608y0J5hggnTmmWdmpnvFFVfkzzDoiy66KO21117p2GOPTVtssUW65ZZbMvPGzPULUHjGQw89lNZee+105513pmeffTbtuuuuGZRg8GuttVYGDM8880wGG4X2ogAISy+9dNphhx2yFuGII47IpgTj8TcAoO8HH3ww7bvvvnnsL7zwQn42IHLBBReklVZaKY+1qi0AQlVXtrfmFQCht9Y7ZttCCtQDCGeddVZm4tNNN11m0KTygQDC3nvvnTbZZJO0/PLLZ8b/xBNPpPnnnz+99957WfoHEKj4jz766DTxxBOnp556Kuf8P+WUU7I5gYofY95tt93StddemwECM8Spp56atttuu7Tffvtlpg6I0BTMMcccWdLH0EeNGpVrSWDyM844YwY2AE6tv0BfgOC5tAXHHHNMHs93v/vdtNpqq+X+pphiirT77runMWPGJHTw7MUXXzw9/vjjafLJJ2/hSnS+6wAInV+DGMHIKRAAYeQ0jB6CApkC9QDCa6+9lvyQxjntYdYDAQRMdKuttsqMdJtttslSOaaLUb/11lvplVdeSTfffHNm5hjyrbfemiV0zoOY/rjjjpt9EaaddtoMEgCE+eabLx1yyCHpb3/7W1b5Axnbb799NiPQFOj7gw8+yFoFfguuNdZ6rS9AOPnkk9Pll1+etRXGSkPAFAIg8DfYcsst0z333JMBAvCDRgEQ4oUJCnQHBQIgdMc6xSi7gAIj9UFgYqBlwFQBhHPPPTdrDajy77rrruxn8IMf/CD95Cc/yYyYg+HZZ5+dgQC1vfuo7U8//fS05557ZhABINBG+NvP1VdfnRZZZJGEsT/22GP5e8+gifj+97+fGTmAMNVUU6VHH320rg/CI488kpZaaqk8rtGjR6cjjzwy+xhwgAQ+fvzjH2eAQDuh/wIgMF8ss8wy+dnMHGOPPXYXrOrwhhgahOHRLe4qFwUCIJRrPWI0XUyBoQAEHv1FxEIxZQyWOh4DJ+m/++676fzzz8/Me/zxx0+bb755NlVwUuQYKOKAsyDTAl8FAEIf/AH4I/BF8B1GzSyhwqA+vva1r6VXX301OzEKWST501qIWsDM+Rz4DBD405/+lNZcc83PnBSBBqYJJgh+DzvttFMGHcCGe26//fbsgIj5TzbZZPn5nsGBEigAemhC+CZwjqxqC4BQ1ZXtrXkFQOit9Y7ZtpACQwEI/AB49dc2+QEw51rnvSJ8kYmi9nMRDEwCmLrGTCD0URvIjFH7PGCCOUKExHCleREWP//5z9M888yTNRpACS3EzDPPXJfSxum5VXZQNPEACC180aLrtlEgAELbSB0PqjoFhgIQMHOMsrZh0ph1N+UHAApESfCLoOXg08ARE3jp5RYAoZdXvzpzD4BQnbWMmXSYAkMBCB0eajy+xRQIgNBiAkf3baFAAIS2kDke0gsUCIDQC6vc2BwDIDRGp7iq3BQIgFDu9YnRdREFAiB00WK1eKgBEFpM4Oi+LRQIgNAWMsdDeoECARB6YZUbm2MAhMboFFeVmwIBEMq9PjG6LqJAAIQuWqwWDzUAQosJHN23hQIBENpC5nhIL1AgAEIvrHJjcwyA0Bid4qpyUyAAQrnXJ0bXRRQIgNBFi9XioQZAaDGBo/u2UCAAQlvIHA/pBQoACFNOOWVX5THohXXpxBxlrZRBUl6LaEGBbqVAAIRuXbkYd+koACCohthNiY5KR8SKDEgKbFU2AyBUZEF7dBoBEHp04WPazadAmBiaT9Nu7TFMDN26cjHuWgoEQIj9EBRoEgUCIDSJkBXoJgBCBRYxppACIMQmCAo0iQIBEJpEyAp0EwChAosYUwiAEHsgKNAsCgRAaBYlu7+fAAjdv4YxgxQAITZBUKBZFAiA0CxKdn8/ARC6fw1jBgEQYg8EBZpGgQAITSNl13cUAKHrlzAmkAIgxCYICjSNAgEQmkbKru8oAELXL2FMIABC7IGgQPMoEAChebTs9p4CIHT7Csb4USCiGGIfBAWaRIEACE0iZAW6CYBQgUWMKQRAiD0QFGgWBVoNED755JN07rnnpvnmmy8tuuii/zHsJ554Ip1wwgnpZz/7WXr++efTZJNNlsYff/whTe+vf/1rOuqoo9KoUaPSIYccktZff/101VVXpQMPPDCNM844/9HXww8/nG666ab0ve99L00wwQT5+3/+85/pqaeeSpNOOml6//3308knn5yOOOKI9OUvf3lIY+nmiwMgdPPqxdgLCoQGIfZCUKBJFBgIIHz66afpH//4R2ayw03F/Pe//z2n751xxhnThBNOmMYdd9z0yiuvpC996UtpiimmyH9fffXVabXVVksHHXRQZu5rrbVWw88zxh//+Mdp1llnTWussUZab7310mGHHZb++Mc/pg033DB98YtfTK+//noCVICBf/3rX+nxxx9Pv/jFL9Kuu+6a/uu//itNM8006X//93/T9ttvn8fhPn0sscQS+f/hzr1JS9S2bgIgtI3U8aAWUiAAQguJG133FgUGAggPPPBA+stf/pLWWWedzNCH0zDms88+O80///zpxhtvTG+++WZm2u+9917aZJNN0iSTTJI1CJtuumnac88901JLLZV++tOf5msaaX/6058yQKAtmHzyyTNA2H///dMNN9yQAQcNxZlnnplBzt/+9rf0P//zP2mhhRZKe+yxR1p88cXTRx99lLUWwMXOO++cv6c9uOWWW9KYMWPS4Ycfnr761a82MpSuvyYAQtcvYUwgfBBiDwQFmkeBgQACNf3999+fDj744GEX8MGUMezlllsumxomnnjitM8++6SLL744ayeWXHLJLMlfd911n2kQ1lxzzYal9ptvvjn96le/yhI/EAAg7LbbbtnccNlll+W/Z5tttqyVcA2TwTbbbJMBhXlNNdVUae21107nnXdeOu6449Lqq6+egQszBKDgmhlmmKF5BC9xTwEQSrw4MbSGKRAahIZJFRcGBQamQD2AQOVPBf/SSy+lt99+O80xxxxp4YUXTgcccMCQydkXIGy11VZZWr/wwgvTH/7wh6zG33333dPtt9+eGfh3v/vdLNk32q688sqkTLF7aR36AoSll146axBoDU477bSsFQAQzO9HP/pR1mD47sQTT0xnnHFGNi+stNJK2QwBZNBqzDnnnI0Op6uvC4DQ1csXg///KRAAIbZCUKBJFKgHEKjtf//73ycmBo576667bppuuukyMx9q6wsQOAZiwPUAwqGHHpoBgjE12q655ppsTmAK+MpXvvIfAIEPAWdDfdIGvPrqqxkgXHTRRemHP/xh1mgUAAGQADBWWWWV9Oijj2bQsO+++2b/hl5oARB6YZWrP8cACNVf45hhmyjQThMDNT5HQAABg+YfAHTwB7j77ruziYEjIYY+9thjN0SBBx98MEv+mD8nyL4aBGYCmgpmBmCCj8HWW2/9OYBAOyKK4pe//GX2U6A5+N3vfpfNID/4wQ+ylqEXWgCEXljl6s8xAEL11zhm2CYKDAQQak0MvP2L9u6776a33norRwQUzd9CBWuv8x2pnmOi8MHnnnsuzTTTTNkpUGiicMKvf/3rWVpffvnls9bimWeeSXPPPXf6whe+8DkKiCSofZ4vPYtZAaDYcsstsxnknnvuSbPMMkv685//nBZbbLHsQ/H0009nR0OhjXwQgIkXXnghzTXXXNn5kkPiAgsskF5++eX0yCOPJD4Q55xzTvaRKCId2rQcHX1MAISOkj8e3iQKBEBoEiGjm6DAcPIgkNrZ/YUGDtZmn332zHAbaQCAsEjSfN++xxtvvPTBBx98rhtOicwBwMCdd96Zoxn6tv322y+9+OKLGQDQNIioABz6a0DOxx9/nM0Q+mNa6ZUWAKFXVrra8wyAUO31jdm1kQLDAQhtHF5Dj8LUr7/++pyzoG/jZHnBBRekd955J5s26iVr6nuPvAm0Hd/4xjcaen5VLgqAUJWV7O15BEDo7fWP2TeRAlUACE0kR093FQChp5e/MpMPgFCZpYyJdJoCZQcI1P00BAMlK/rwww/Tr3/964TBMX+svPLKDedR6DT9y/T8AAhlWo0Yy3ApEABhuJSL+4ICfShQdoAgkuCNN97IzoL9Ndeo4yCEkgPijjvumPg+RBsaBQIgDI1ecXU5KRAAoZzrEqPqQgoMBBBEH3AM5KjXN6rAVNVYEA64zDLLpAUXXDCNHj06RyVIlywT4WuvvZbt/iITJF+adtpp03e+853clygImRqlct54443T1FNPnaMYRDBMNNFE6a677spRC/wH+AP85Cc/ySGKnCNFPaywwgo5fbMxSrQkO6OETpIhCVXca6+9QoswxP0YAGGIBIvLS0mBAAilXJYYVDdSYDh5EKj8JRkSHoipiCAgtSvEhFFjzvIcyHkw88wzZ8nec0QbMBXIMyCxEcdBSYiAAPUXpFumKZC50G+gwT3PPvtsOvLII7P5wDOBEfdIrAS8nH/++fnvKaecMt12223pkksu6an8Bc3adwEQmkXJ6KeTFAiA0Enqx7MrRYF6AEHeAMmF7r333sygpR9W8bDw6ie1+1vCIQDg2muvTcIQTzrppMzIZSTcbLPNcmpmoYL33XdfvlaeAZ8p2qTuAaZOCwBMCFkUiVAAhF122SU/A4hwnyRKaiYoGy3fgaRHxgGYyG8g1bKsiA899FD6+c9/noQ3yocQrXEKBEBonFZxZXkpEAChvGsTI+syCtQDCNT7mK6Uy3IIqGdAfa/iosbe777vf//72aQg4ZHSzao+nnrqqbl+AYbte8WSJCWS4ZDmgTZAUiQag2OOOSabDZ588slckhlQKAACgLHiiit+BhAUV2JWYL4wFo6Jsi1KunTrrbdmjQTTBNOGPAo0GbInRmucAgEQGqdVXFleCgRAKO/axMi6jAL1AIJkRX5oBqj1SePMB7Iiako4u2/zzTdPW2yxRWb2pHc1GyRFUrnRfSR5YENBJcWRaCQwbtUX99577yz9MxcAIDQEnrfDDjvkss0SINEwyNrIT4EmghZCIScFn/RTJEq6/PLL0yGHHJLBgmdIhqQ/Pg/RGqdAAITGaRVXlpcCARDKuzYxsi6jwEA+CEwBJHKagAIcFNOT0ni77bbLjoS0ALQBmLKUypi5GgbMA/7eeeedM+Pmf6CCIkakFDNg8d5776WNNtoomx5I/rIdSn8877zzZsABeNBCABN8E4AVpgVgQO2Ejz76KPtDKCnN3KFf4ET65b5j7rKlaftwAyC0neTxwBZQIABCC4gaXfYmBUYS5kiTAARQ7atx0F+TNllGQwCBJqJoIiQAjPHHHz9/5G+A4b//+78/1x8QADQwKYhQYNIARNRiUC9BhAMfCWYMIEUeBOaIaEOjQACEodErri4nBQIglHNdYlRdSIGRAISyTFfhJ2YL4ZIiGJggmB+iDY0CARCGRq+4upwUCIBQznWJUXUhBaoAEJBdXgWRFJ9++mn+HW3oFAiAMHSaxR3lo0AAhPKtSYyoBBSgei/U9Y0OpyoAodH5xnX9UyAAQuyOKlAgAEIVVjHm0HQKcPDj0T/jjDPmBELyAMwwwwwZNBQ/fR33AiA0fRm6tsMACF27dDHwGgoEQIjtEBTohwIc/5544omc3ljCI/8XDn7AgaiA6aefPmcd9LPqqqumu+++O9IS9/iO4iAKIEhAxUnU/1rtb06hfqIFBcpMgQAIZV6dGFupKMDrX1jgq6++mvMJSFUsDHCCCSbIKZCPP/74DBjGGmusUo07BtNeCgAC6lzIM1ELAgqA8MUvfjFnx1x99dXbO7B4WlBgiBQIgDBEgsXl3UEB4XyyDdaGAo505MIQpTBWDlnaZDkLaBiYH6Q7FjooKVIvN9oWaaLRo1cbbZMkVbJa1mu0T3JayEkRLShQZgoEQCjz6sTYhkWB//u//8uJf0444YScgEjVwwknnLBuFcV6D5APQF4CIEN6ZAWUpCAGCqQslplwnnnmydkNn3rqqXTKKadkc0O0lDUrEj1JE92rTVrt9ddfP1fUrNfkuZBvIgBCr+6Q7pl3AITuWasYaYMUUK/g6KOPzipe5YxJ/hi7/6UermcCKMDASy+9lOsj6MPftBCKGi2yyCI5I6HyyoovXXjhhTkEUGbEyBPw/xaGnwbJuShG1eCSVeqyRgACDYK9Ey0oUGYKBEAo8+rE2IZFAWmGFSDafffdsw34/vvvTzfffHPOGsh5bKWVVsqf8yd47LHHsqQHFHAo8zPJJJOkmWaaKZsOlElmOiia6/UPbEhrzGkxWlCglgI0TTJRDqRBOOqoo/L+jBYUKDMFAiCUeXVibEOmABWrkuM9AAAgAElEQVQ3s4KCRlNNNdVn9wMHv/vd77LpgZ8ALcJrr72WZp999mwuUNVQmmOmApoBmoK+zcGvEiKTxVprrZXBRLTPU0B650ceeSQXjerVNhhAACppEAIg9OoO6Z55B0DonrWKkTZAAZ7hPMQ32GCDuldLJUyDwH9giSWWaFgDwDFxl112Seeee24ukxytPgUwR0Wk0KlXG78UGgTmrXoNQKBB2GOPPXqVRDHvLqFAAIQuWagY5sAUEEJ2xRVX5ORGtAT1GsdDpYxpDbbccsuGSErbcOmll+Yyy0DFFFNM0dB9vXpRRDGk7Lg6EEAQ5qhCpjLb9TRVvbp3Yt7lo8BYxx577L+zeEQLCnQxBUQuXH311WnzzTdPW2yxRXII1zYAQt6C0aNH5/LJchc00qjMgYOFF144zTXXXI3c0tPXyBUBJMw999w9S4dXXnklg0mOrkxZtU6x/uYQKxsnJ0VgNfJm9OxWKf3Ex7r00ksDIJR+mWKAg1FABULOhcoh8w3Yfvvt06yzzvrZbRwSR40alZ0LZTwciuRGi8BRcSj3DDbe+L66FBAm+/HHH3+WOdFMa0EATda1116b7rrrrnT44YdnR9hoQYEyUiBMDGVclRjTkCnA7s3RkHMcLYEwRLHom2yySZKY5qabbso/Bx98cM6JEK01FBBSet9996WVV165NQ+oSK9Ap3LaNA3AbZiuKrKwFZtGAISKLWivTgdAYAL49re/nUnw7LPPZjsvjQJnsNNOOy07LgpzjNY6CoST4tBoK9rmggsuSCeffHIuDBbmhqHRL65uLQUCILSWvtF7myjQFyB4LClN/gMHMDXuD3/4w4ajFto07Mo95rnnnkunn356jmSI1hgF7M8xY8akHXfcMc0555xhymqMbHFVGygQAKENRI5HtJ4C9QBC8dR33303cZ6rzYvQ+hH15hPY16WnnnnmmXuTAMOYNX8FETj33HNPDqVV4yNaUKAMFAiAUIZViDGMmAIDAYQRdx4dBAVaTAEgQbSMkFrmhgCzLSZ4dN8QBQIgNESmf18kVC5shEMgWBsvDYDQRmIP8Ki33nor3XHHHWnttdcux4C6bBQAAkdaxcECJHTZ4lVwuAEQBllUoEA1P+FIjz/+eM7hv+6666b9999/QM/jTz/9NJ155pk57ay4e3nZqblXW221unZwBYAk79lvv/3icB3GixYAYRhEa8Et4aQ4cqICCVdddVU64IADcmROhNeOnKbRw/AoEABhELrxgl9nnXVyYR8hc6+//npWAfKMX3PNNbNGgc0QeFDGdfrpp8+gQDrVJ554Ile223DDDdOuu+6ac/8LbZIcRbY1aX8l7PG/CnAq4MnRrnLgV7/61VxFsG/Cn+Etc/XvCoBQjjWWHEiaZVJwtOFRQNKvyy67LDsubrPNNrlWSGguh0fLuGtkFAiAMAj9eMIvt9xySfITXsaLLrpo+uMf/5i+/vWv5/hlXtsXXXRR1gyoAKhQkOvcI3HPQw89lLPw0UDo66CDDsqA4qc//WmScQ2okPlvwQUXTMsuu2z2YqalcCC4BwiJNjgFAiAMTqN2XGGPv/HGG6EeHyGx+STI53HDDTdksCUEMlpQoN0UCIAwCMX/+c9/5sqAe+21V2I2GGeccbJkL2ROAZ/jjjsuMQ9MO+20+XM52H0n7t7nzBOnnHJK2nvvvdNLL72UJYN99903Swc33nhjOu+88zLg2GqrrbLpws/3vve9/LwFFlggnXXWWe3eE135vAAIXblsMegBKEB7ec011+TCTqIcnDHRggLtpEAAhEGozQeB45Wc/A8++GC6/vrrczEgVQMxcyVbqQGpVeedd94EUNx7772JLfbEE0/MAOH888/PJgkmBX8DAHKxqx1A4qKdYKJgWnAPkLHpppumSSedNGsnog1OgQAIg9OoHVfQHvzmN79JG220UTse1xPPABJOOOGEnHVxlllm6dcngWmC9jFaUKBZFAiAMAglMXDZ+cR1AwJeQD4F/ud8uPHGG6dXX301p5ZVA4CPwQorrJBT/WJatQCB3wGAwPlIrLhrfM+/gYmBmYK2gVkhAMLQtngAhKHRq1VXh5NiayjLnEnjqMYIQaSv46IzhAATKa5bQ/9e7TUAwiArD5Uff/zx2WRQ5PD3MrILYuLf/e53s9kAY/e5csJnn3121gLUAgTZ5U466aR8H78D/gWKCRXOj0suuWT2W9DPWmutlR0iQ4PQ+GsZAKFxWrXySma0iy++OJvIojWPAsybCjzddtttWQPZt7IouvucdpODc7SgQDMoEAChASp+8MEH2U+AQyINAmdEqj7+CD6jQcDsaRuef/75HJUw7rjjZp8D97qeiUJUA6Yv7W/R35RTTpkdE0U9PPbYY9kZaaKJJspRDiIYPCfa4BQIgDA4jdpxBXPZ+++/n/dwtOZSQJZKWoRzzjknCy0ipmqbMOmdd945ayOjBQWaQYEACM2gYvTRcQoEQOj4EsQA2kQB9UVESqlOOsMMM3z2VJrMZ555JjtBRwsKNIMCARCaQcXoo+MUCIDQ8SXIA5DrQ3SPqJxoraMAcMAxep999klzzz131mwCB8cee2w2XwrDjhYUGCkFAiCMlIJxfykoEAChFMuQo3esBeYVrXUUEC113XXX5Wqlm222WTYrvP3229n0wEl6qaWWat3Do+eeoUAAhJ5Z6mpPNABCOdZX8i9Fh3baaadyDKjCo+C4CCCIcNhzzz3TbLPNlnO28AORfG3ssceu8Oxjau2gQACEdlA5ntFyCgRAaDmJG3oAyRbjEvIbrbkUkOZd4+hcNGDgt7/9ba4NAxxwmFboSWr3iSeeuLkDiN56jgJjvfDCC//quVnHhCtHgZ/97Gdp8cUXzzkrorWHAjKFKkA2WJ0AycZE5IjmGW+88dozuIo9RVZFZhvJkr71rW+lZZZZJqd9F9IIjN19993p0EMPzcXeaHAABNFU0YICI6HAWOutt14AhJFQMO4tBQUUxZLiOgBC+5ZDvg/Fxdi7henWa8CBDKKAwTHHHJNDfKMNnwIvv/xyTq5Ga6BegzBoSduAAaHTt9xyS67xIpOlhG7RggIjoUCYGEZCvbi3NBQIE0P7l0JuD7Zv2f0UJKvXqMAVJptiiilyUrEoXdycdWLKEbVAi/Poo48mCd2YF/z4XwVIqdyjBQVGQoEACCOhXtxbGgoEQGj/UmBSUov/5S9/ycXIvvKVr/zHIJ599tmcVVGG0FrbeftHW90nfvTRRzmCgaaGqQEwABJElEw++eTVnXjMrOUUCIDQchLHA9pBgQAI7aDyfz6DFMv/g9c8qbVv23rrrZM04r6P1j4K/OlPf8pl5aMFBfqjAPPfYC0AwmAUiu+7ggIBEDqzTEwItANC6rbddtvPhdY99NBD2fzAXi4tebT2UkC69w8//LC9D42ndQUFpppqqlwKYLAWAGEwCsX3XUGBAAidWyaq7KOOOipXNy2cEDnQSQe8zjrr5NLo0dpPgQAI7ad5tzwxAEK3rFSMsykUCIDQFDIOqxMOcqNGjcqOcsLsNAl81AZgfugvwmFYD4ubGqZAAISGSdVzFwZASCmHASl/usACC+Qa6o00KtN33nknjT/++Lksc7TuoEAAhM6u0xtvvJGWXXbZXEBoggkmyIl71lxzzVzCPFpnKBAAoTN074antgUgcHJQglSZY8yUF7PPMGaJPfzvc3/7nITB89lnsq35TKIPn2HMxW+JP9zjM98LjXKvfv1mz5R4xTWa5+vLfYqW6Idnr58jjzwyqzhXXHHF/L8+jauQaoxDX0X4lfLNBx98cK6tPt988+U+fec+z9YkhvFsv33vt2eihd/FOLpho1RljAEQOr+StAVPP/10WmONNXJZYiGQEbnQuXUJgNA52pf9yS0HCBiy5DSydpG4J5xwwrTNNtvkONxrrrkmffDBBznEZv31189hUA8//HBmsGKnp5122iRtqIQeqr5h+FSSmK7PZFyToe2FF17IUggvaMlBpBAFEkxuu+22S2PGjMlj8Kx33303gwAZxvTlei/IXXfdlQ8qtdPPO++8zOinm266nEgE+DjppJPy31NOOWVeUxoHcduSjBjruuuum4GCfp5//vkMBiQrMQ6AYO21186FUu65557P5qC62ne+850MPKK1hwIBENpD54Ge4p31vs4444xZm7DBBhtE3oMOLksAhA4Sv+SPHhZAwPRJwBqpeaAUqhiyzHW8l5dffvl0xhlnpG9+85uZYTsgvvGNb6SLL744M17q+vPPPz8ddNBBmZFi3jvvvHO64447MsPGjI844oi0+eab52dzeNptt91y6VhxvYqR6H+iiSbKTlC8pcVf60dp2d133z2R/F3rO1oDGgBMHAD4yU9+kq6//vocJ+x7QGPLLbfMGchkg1trrbXSZJNNlp8NCLgfcJGVjEZCCVUOWAAPhyzPOeSQQ9KDDz6Y/9fHpptumquoSQjjWilRpf6N1h4KBEBoD50He8oFF1yQ4/CPO+64yJo4GLFa/H2VAQKt8b333puYtlZdddXPan8Q2githD9gtV4jnN522225TPYcc8zxuUvwCAJr1ctlDwsgYLrKhU4yySTZhrjYYov1u4UlQKGKF8ZEwidV//73v0+XX355TpqishhJ/qyzzkpzzTVXevHFF9Opp56arrrqqszUSem33357DpGSSMWzHfJAiXS5JHmLJX76iSeeSDfccENm2IAAzYGD6PHHH8+mCo5R4rExbc/1LM8FYsyDNE+zAdDwRzCvjTfeOG8CWo1aMGQeBx54YPbABpaMhV31hBNOSGK6OV4ZI6csYGi99dbLmonVVlstrbzyynmjmh8AtO+++7b4CIjuCwqUASB4Fx577LGeXhRaBIc2LWGvZ03EhDrpx1RlgEBrfPjhh2eec9FFF33G0N9///0sHDJt4WX1WhF+6zpnem2TNpzfjLoWVW7DAghvvvlmZvRU4zog+ffXMGSMVFnXJZZYIjPxBx54IDNvjJF0Dsn5mXPOObMZ4uijj06jR4/O9kk53GkQLOI+++yTzRIYvEMF8rv00kszGMDIAQ0SPXMFZo8pezaA4AU0BoDFos4wwwz5gDr99NM/AwjMAPPPP38GA2qoY+6eKfVr31YLEKSPZV6gLjV+Y/YDYWJIcp8bEw0CjQQbLFMLYOKANJZo7aFAGQACDRoN1GDFi9pDkXhKJymgoBJBoZNVLasMEACBAw44IJuuCZ2EWo3WmMCm9scmm2ySAbv/Oc4yM9NYq1/BHO78p6VW9dL5jX9tttlm2aGd5pnpuKptWABhKMTAMKnigQgvg8Vic5Tik+qGeh3DRGQHJm3AcAECQKE6WZGNjcaBSYKqyAtYCxDEXTMJABCShDBXeO6ZZ56ZtQs0AtT/zAGAhjHyQWAa0GgaaECAFD9MG5AqQLHHHntkcwbTBqDAVPHWW29ldSrgAogwr3i2DabaWrT2UCAAQnvoHE9pjAIBEBqj03Cv6g8gSDnN5MC0jQ8QMIGAr33ta1nbQNijcaYh9jn+RKPAvE24o2V2hhNcaYSr2poKEIABqvzaxvcAgancMUnVxKAwUv0VV1yRIwZI0BCZtJ/6EE1A0+B/Knkez7QIXiafczIEJkjk0J3FZkr4/ve/n9VI+rbw/AUgRc6MpHmSmzEAEhZV5jZmAWomSBKjhxxpFfhZ+JyTow3BdABpFk6Kxk17Yb42F22Esaq1vtBCC+Wx0GxwdKS9oNkAPDzz2muvzfcxuQAfIUm27/UKgNA+WseTBqdAAITBaTSSKxoBCLvssks+h0888cQMGmi6nfMFQFh66aWzkMsczEGeMCg9NWHvtNNOG8nwSn9vUwFC4eBXO2tqGdI4k0AR0lgwREzSD+bcLCaJwXNMEaJYhBkOlICFLZSppPYaY+LEUoRJ9reKfA/8ACTAAq3CySefnJ8NIFBn0WJohY0R8NB/EebYrHmXfqeVZIABEEqyEDGMTIEACK3dCI0ABD4GhL9zzz03AwRabTypAAg0zwRYGmPmdVrmAAifX7eGUi0X+QNqb+Xdj9FWmRHyfeBIyfmMT4HG3sW2J3IjWnkoEAChPGsRIwmA0Oo9UAAETvE0z0XuGcDsmGOOyZoC0WSrrLJK9j2YddZZcySdMPgCIIiUY16uBQg04XwQgAVa4qq2pmoQqkqkmFd1KBAAoTprWYWZhAahtavIv4wfGAfEotEYMxcQ6pihmRZoD2h/p5lmmmwa9pszPD8xEQzMz8wMzNki6/xNCPQ983FVWwCEqq5szKsuBQIgjHxjMJHxD2I2FJpM7cqxy+FJa+azohhTf09jBuSoLGcJyU1ED9OcuPR6zaEtIdoiiyxSqZoNARBGvh9H2oNqhZg+Xzj7lk8CUwP/Ahrweq3IBAxsVDnRXQCEke6uuL+rKBAAYeTLJYupaB1+NaQukUkcbzkkY/TUs7y8B1K9AhUylwoR5mjMDsw5mcNvvcbTXC4U4dFFsrKRz6TzPQRA6PwacIwHBoQea0BCkUK/86Pr7AgCIHSW/vH0NlMgAMLICS7BmEyjJH6RRBy2qFkxeqG9wAF7LUYugmieeebJKly/SWlymfgtbIzNl/MyL3LOzEKNhRKzGZPsivwiwpCpiiVKk5KdI5lEZv1JeCOfZXt6CIDQHjoP9hTO6jRgnMeF5At3jJZyniPv4WCtISfFwTqJ74MCnaZAAISRr0AtQODQxTGXzbaw1TIZSJAGRJDG2HIlROMNzkRAOqPSlWKdtkGSGmmX9cO2KwzZdxybaSnkD2FiABJEG/lMMjNmDQCkm1sAhG5eveqPPQBC9dc4ZlhDgQAII98OtQBBfhMggYpWvhOmA2nKMXM5QdRUkTgMOOBFLlMd56777rsvAwoAQUgwbQOTAy2C7HV+00JYLxoKtUzkIpE7hQ8EO/E555yTvc+7uQVA6ObVq/7YAyBUf41jhgEQmroHagEC0wGJn6aA46E0tGqv7LDDDpmxK7wm8YzvtD/84Q85nTnfBWaFvgABw6RhoEmQcZUmgsYAABGWxrwgdblreJ/zW+jmFgChm1ev+mNvGCCst956/6o+OWKGVaeAwlls5CTUTrVur8VQCxAwbvNRlVVmOTVK1FihDZBS3GccF5kZFCWSTE3ImUI3BUCQllxSMbHm/BhoDqSxVb2VlkCIGRNDYWqQmCwAQvN2Ly98axUtKNCXApyP5TcarI31wgsvBEAYjErxfekpoKYGB7cACMNfqgIgSDojgyiQwKSgcp5MpuqXMAdwNlT1jq8Ak4LrgAPmAv4FBUAQBQEw0BYwKTBTSF7DAVGZXTVRFHNTjh1QCIAw/LWrd6fQUmGr0YICfSmgbIAMwYO1cFIcjELxfVdQIHwQWrNMvMCFP/IApw0YauZUceWS2jAncER87733ct0Uzo9VjjMPE0Nr9mP02hwKNGxi+Jc3OFpQoMspEAChyxewYsMvA0AQrsqhNFpQoC8FlA8Q/jlYCw3CYBSK77uCAgEQumKZemaQZQAItDZMRNGCAn0pcPjhh2dt3mAtAMJgFIrvu4ICARC6Ypl6ZpBlAAjSYzPvRAsK9KVAmBhiT/QUBQIg9NRyl36yARBKv0Q9PcAACD29/L03+QAIvbfmZZ5xAIQyr06MLQBC7IGeokBZAMI666zTU3SPydangAJUwkCFjHaqhYmhU5Qv/3MDIJR/jWKETaRAWQCC9MLRggKcwGSfDIAQe6GMFAiAUMZViTG1jAJlAQhKyw41V0DLiBIdd4wCYWLoGOnjwQ1QoHQA4fTTT0/jjTdeTrvat4nH9KPOfCPJU1R8k4FNk7Wt7I00ITf90ksvXfahlmp8ivccdthhyWGrhLA6ABL21GtlAQi//OUvAyCUahd1ZjDqTfzmN78JDUJnyB9PHYQCIwII0qp+/PHHiQ2rrzSksts444yTXn/99c8Kuagr7bMpp5wyjT322LkO/PPPP5+zp0n3KWHHb3/723zNkksumd544438owKctK0qx91www25GIwyrzKt+ZG5Tf1u4wEgMAwgQ+iOaw899NBcf16K2HfeeSd9/etfz9XjvvCFL6QXXnghx3lOOumk+XP36sN3/vZc+eWBDQVpzNOYqAT1Nfnkk+f7/QAu5uG+v/71r7lATdHv+++/n+f7ySefZJrpSx/GbFzosc8++6T1118/rbXWWv+xbPoqUtl6vjmbg/xVxmfM6IS2xlrQ37jMAZ1ku1NSF33VPS/G6Hv06q95tnUyVnN0vzkYt2ehrex3cu773zOt6UQTTZRriaOJZ8jpjQ768XybD/3R1N9AnzXzGfobqz1hbvrVv/99rvnf/tL/brvtlkGChC/zzDNP2mSTTUoNEKxTaBDifHbeSR8dJobYC2WkwIgAgspq0O/mm2/+HxucNIwpYRxQsiItGAcGqbgLJqhMrBztmJ1rt9xyy5xnnfSnZCxtAkaBCXjG7bffnm666aZcDEalODna9Y/hYBD+9lxMU9EXleOefvrpXHt+zJgx6YwzzkgTTjhhXge16vVrDBgZhuUzzJCUienJCQ8AFIxttdVWS3PPPXcGHRglhu2ZGJtr55xzzrTrrrumCy64ID3yyCP5cz+yUXFEuuaaazIjxiTlqMfESJJ33HFHBlnm5tn1AII89WeddVZmip4JhOy1114ZCKioZ16+Q2vMGI1mm222THMMFDPCaOXW3m677TLYQk/jmXjiidMWW2yRmXS9duaZZ6Z777030xUwU4jHWKwVxu3+/fffP/3qV79Kd955Z/7foedaz8T0f/zjH2eQcdJJJ2XaAQGzzDJLBlu+R/vFFlss5+C3F+wT40dPef2tI3CgDxUCPcN6Aj1oocKf/QC0Kf5z9913Z9DVt5VFgxAmhjIeh+0fU5gY2k/zeGLjFBgRQLj//vtzAZbjjz/+PyTQddddNx/QpLpbb701FwPBKDGEY489NvHivuiii3JlPUz5iCOOyPXhHey0AZiD2u8KuTz22GOZ0WJygEahFVDIhcTNExijUuENMAAWVl111dyfSnCetdlmm+UiMorCXHLJJZnxY6yYCTBy9tln5+IwmJR+Lr744nTzzTfnUraYISaO6WPA+sQM5Z4/9dRT83gwWgxbP5j+GmuskcGNErVF2VqFgi6//PL04IMPZk2JCnf6Qg8gxXgxyHoA4dFHH81V7rbaaqtcOW+//fbL8wKO/NC4ADuaQ2fZZZdNt9xyS3rqqadygRyFbjDTUaNGZU0Fho32wAbGWlTXM+baBoCsssoqOdMaEGM93ev5wBhgYq2tH8BAY8ABT980Jq73PACPVkFFPn0BKOiLzgAV7Qe6H3jggWnHHXfM4A6wAzjsG9oS9PEcGoTpp58+7wv3ACOeY/7Ah5977rknA5AACI0fBnFl+ynQzQCBUET46KT2w4oR/oyFoECwW3jhhdu/kBV94rAAAkmXdE86JNnON998ucY7VX7RMA3MGuNxeF911VWZKWPkGJVFxJAxJwuLacw777wZIGCWGCymQiomuRdAAUDAWDEBEioGhYnZpBgzBoIZKvLiGZjYrLPOmjbeeON03XXXZTOChpmR4DFeDePWt7KnGCAJj7ra5gMCSNv+x+wxrGeffTYzIcy3kGiXX375DDowSZLy7373u6x9cD+JGTDQh75Jv+YFEGB02qabbpqZbX8AAa0wW/P2e/bZZ8/0xXSBMBod4GillVbK40QXIAEzJjmjM5oCT0AV84fGVECrQDMAMNQ2TJx2gAahkMhV8Lv66qvThRdemC8FvjBs60l1vs022+Q18j/68wmYa665slnFffYOmgBJxuZvNAO0aCsAODTxPGYQc6VxQRtrQ1tA60RjQ/PB3IF2aAk0AhDAAn+OAAgVPbkqMq1uBgiEMyW5lfTuVKN93GmnnbLAQsOJjxBamUGjjZwCwwIIQAHmhyFhIA5pDMIhXgsQmAwwMIuG0WNCtAXu8z9GiVFRuVOJr7766p9pEBz4PveDMfpN3fzrX/86Aw5S9C677JKZLCnZ5ph55pnTkUcemZkIZkSKJo3SCtjMJ598cmYqpFKaDP1gUtTVvtPPyiuvnKV+DBczBwJ8VwsQMOEnn3wyf4cRkXr1ASDsvPPOmeEZKy0I7QqGDCAAIzQMBUAAUFxPE4Mxe9FIxP0BBP3SUsw444yZaQJJxuU5wJja3ZA0gAAIUMcDCMAPib4ACBgtYGNeNDO0O2hH4mY2AaIK+zgTEPW/fnxG4ge+zjnnnKwBwsSZjGg2mGwwZ+uO2esbaKwFCMboBfZsdADqCoBAk+NFBxKMAzDxfHuD4yb6WFvrBIgAkvaA5wIpQBlaMLHQ/ACtARBGfkhED62jQNkBgrPS++58r20EOWeV83KJJZbIwoCzmFBCqKLRdFYA8syczMbOD2cS8yEB0PvZV2PpGc56Z5ay4N5lmlL3E74IgvgPUy/HcyZuPIhAoi/njnGsuOKKrVu0Hup5WAChoM9gJgaMAnN0WGOMGInDHDjAwNiWMSYqcozD4tpctAIYuQgEjIHkbWPYEFTkJNQnnngif25zYpJU9YssssjnAAJmg4kwIwAONhwbPKYD1AAbtBkYE2avf6YCgGa4AIEUjsEBJ14EjNVLpHl+LUDwHAAGo/ciARtHH330kADCww8/nNEyrYKXmRofGAJi+gMItCyAC0DAnMN0Arx5Ca0J5q0fjQYE+DBGJgMHAI0FAESDAQRwHDV2poKBAIKDhh9GfwDB/gB8gA1jp3UCRPy2DwrtDq2CQ8CBAfz5Xyw5rQwziH74fJhbAIQeOs26cKplBwgAONPst7/97c9Rl4DE5Oc9dAY4F5hKncsnnnhiPnMJQM41ZwtBDL8g7Xs38QAmRKbFvo2ARnhwvzPamUxYcAYQbpgR9thjj3z++14zTs35RWhx/tUDH124RTo65BEBhFoTQ1+HMAwX6iy81x3gJFWMHlN3eGPCNJClsmUAACAASURBVArMDswWFh8TIU27j92fnd89NBEOfwCCPRpzc7+NaRKkd0DDxoUu3WNDAhQYNjW0/qBZzBRQgFT1ASTYdIsuumi+Th82IybFYQ6AoHHwv/FhqKR03/kMozRm/fOg9wKYKym3QM6ACgnec0n5TBRMM9AwNI7Ju5Yq3nW1DfK22TngMZegg2d4cYwXMCgiGMzPeDzfywuQMSHolyMmmiy44II58sFLiGa+Mxb3eikButr1pNL3MhoHEIZWng+c+Ax90Nx15mHdmXCMmcpf6KHxWRPP9XxOh+iA5mhgHvplBjIOwNH+oglyADlorLNnuNb622Po6HP9oz2/FQCQVqJeCyfFjp438fA+FCgrQCCZ03jytXLmOCNobZ3dRStMDM5B72U9gADwM3fSsjqvCG3eT5pjApJzvm+jBdQXjbKzjTDprCLUAR++dw7zDbvtttvyeUeDqNGMOvtoLjvtG1GFzT4igDAUAjABAAKYhh9MgeraJsAQMByHt+iEomFo7qG+KtCgfjSMqejT9/VCxjASEvniiy+eUbDr9amv4nr/++mvj6HMsbi2dlzFZwOFtJljAQKMGQqubYUan7Rcr2HyBV3NRV+NhND1nTumjpnTGPRtrtVqUblxa2jXrOY56KfP2rWu139B5wLM2Ec0G9SNQGC9FgChWSsV/TSDAmUFCNT2AALtHTAOIBAOBgMIzg9nLvMtYQOj5wsEIBAcnPmEDQCBzxAhqm8jFPBvIqQBKkyUNBBMGszNwAEBAligPSaEFGcWTWYBEEQ9RRsZBdoGEOoNkyTO1sSkwCYFGTa7FbkPSLjRqk0B2iQaJ2vdH2gJgFDtPdBtsysrQCjo2J+JwfccvzFx2mDmPkyf3xamToPXFyDQEDIPDwYQmCQ0oELkF00vjUBfgMDZmWBJUDFOQhHQQMhg6g0Tw8jfho4ChJEPP3oICgyNAgEQhkavuLq1FCg7QOAzxXTHNNq3kfIxeyYEpghmBiYDGgfRDZyGSfYkfA6LTMPmS3vMjMkEylxa22gDmVgBAuZR9zBTML/yMeL3wCGcplA0megnPlCFk6L7+HwxAUcbOQW6HiBwBKRi77vRaknD0Q6qtXH6hvGNnITN7YHaXLgldZ4Xod0NPanzqBLFOFetBUAYfEWZuUhhA62/8DIOYg58TMK71YhZa/Cn99YVZQcIA62Gs4rjMh8hf9sTzuFGJHdSv3NGdFdtE0EFOOiXb5g9OFBaff4PnK75INh/nJr9z+cr2sgp0PUAgVMb5ApR1such0SuYRuDRMsOELw4NrvcCpB3uxvmwM7HF4R/SNVaAITBV5S0xynXO9Vfcw0HXWpf0UeicTiLRRsaBboZIAxtpp+/GqDA3J03tU30VJGfpdH+ne38j/TJWZkTdLTmUGBEAEGsOpsvh7B6Nl8eqH6EnXGwE/LnOjGqIgVkwKMKevXVV3PCHJ7qcgDwhGd3EhLHcU50A4Yl9wL1FTWWaAbMlBTjcw4v1GA82yX1EYfrmTYOtRNUylFReA07md9Fgh/Pl5wHAmYjgz456NA88JOQd4Bdm4c8Zx0RFbzw/djkgIkwIOjVvZ5FJSYbIB8Lm5bKzcY3NlK6fs23qBnAloY+vPo5+QjL9Ky+TRgR7372dv4VcgMILTRPYYbGg7GLLDA+oZWiH2hZjFGSI969wkKNUSSBz4rwSJ7GIko4KUlOVS9UsDlbrzO9lB0gWA/vlbDSepIYTZj9zvHLQTh69Oict0IOElEl9oV3ihpXUip7wx7Rl73B6UweEvZjzmD2nb1t3/IUd8jaR95NCce8dyQ974P3R+y6MQpjA7iBWGGrpD05OkKLMLR93asAYWhUiqs7RYERAYT+8iBQT3IuIWVgSpg5xo/RsiFhfvIeAAoOHQAAQxcC54BiaxICgxk6kIQpCmmRFwFDpf4W54p5YepUnNRKJBqHG0DiICTd+JvjCmkIuBCawykSI3Q46pNnLUIAJkCAe4XLCIHkPGk8PHBlZmTv8r3QRPMQm+/QphKjZjUWtjHpif3vfhoONDE2Mf68bIVlAkWca+R8cBhj6gCR0D20qwcQ0BUY8lygwJjlNBA+JGSUzU7yIUyEnU+SIfTl7YvxoDdwAggBCb4j+QEtmAJQBliIpMAEqiYVlh0g2FveK1J5bZiW/SPZFRCJqQDepHYqXYwac5a4yt7j4V3sfQCRmla4r6yWRaisvSgOnXbNu1HUEQEa3GMP2t/2s2cCI+4BtoEX3uL+5oUu1AzAti+B3miNU6CbAYLzhsDXzCim/iiHL/BJcN474+Q+cY7bf7RdxuA7ZtkqmkYb31HNvXJYAAEjlgrXQcJejsEKPSnC8BxCEiQBACQM+QFIGBgZpxeHFeYkFKZg/JiRhXYoOZDUHSiSYzj4SEkcYQqA4FBzENoQVEwABcnZZ6QrEjAmKekPgOHAxVAlQzIejNWhxrNWdj7AwGGLsZPGaDDMSYiNOFz96kNWr6LQE6bLkxY4wVSNk/RPWnMPz17AwvPQy0EqUQinH/2aPy2AvmlDHPToBFTxCO4PIBi3Z5P40E/iIoALEzFuoUVACyBAwwJUoIPnYwgSkXAEovlBb5oCL7vnW08amqImAl+IKrWyAgT7h8aJhsl7ReNk/4k910jt/gaw7RfrDeRyBLOG9jiNmLW0n8Wauxbo9hmwaJ9g6kC3veodsN4FQABWPcP76z5mLkBUjgzgGHg0DsCElsn+Ld4/ZikgtV79iyrtn2bPpZsBgj0kPT5w2ermXLSvnZP4DLBM+KEtc97R6hIo+StwjGzED6LVY65C/8MCCJIeOSwcIiQMi0TSlMhC8zlmTVpXf8HiQnsOG/e5DqN0wPA+1QfJGkqEDN1HAgIkSC4kcH04BAuAIBWzw6wWINAWUNG7h3nAPXIgYKKe5RD2XIDCRqI29RlvXOCDehRwwcA16lXPE3aDWTtIjY16FiPWD9BTVCD0t82K2RoDxkxTQO3r4HeoCr8xRgyABEeLgRFYCGPzAjBRYOL9AQSHf5EGmnrX843N9QAPsISBmB8QYVw0AlTQJD//F9oH/chKpgF+5otxAGfWoL/cC926+csKEKyT/UG7BDQKHwOu7fNibexvhbCAZfuvSEMrpMy+ssd9T7vG+QsYBhppA+xD+82+sq+Z+EhkDvkCIAAYQH0BEIBEGieA2VhIaMxpJDjaNRoJpgn7yl4HMFsRqtyte62RcZcdIDC/ksj7loNnpnJm05A6r+wLCZWKcu1MW7ShzKr2IjMrHuAsd84TPAYyX9qfzi9aZ5pV52QhMDKVEXYIYN4Dmlh8xN+ENX87B6ONnALDAgjU6SRQEjqNAPV4kSnPkHwHDBSmACp6DAmyo1nwnXtJKHwYIEOSDARoE2BuVOCYMTU9Jk9Kot63GUk0Di0HksOSuh+YwMhJ7LQPmCTGjOkWB6gxGpONxSZPLcuUALAAEQ470pXP9OkgBQb0y05LwqoFCCR0z60HEDjfmKMDmDYAMKJJcJBjukKDHNheGECHWpn2AVgyroFMDACaMfK3ABDM0YvqpXHoS3FNU+ClqgUIxuu+AiBgBujMVs38gEHow4sGoZtvvXoGI992neuhrAABqPRj79sDpHEarSLZS1EmnWbKfrV3gGMmIqCWBOU+krw1ZzoD/gBT7wkA7L0g/QOvAIj3z/NoswB52jMaBv45GID3khbC+4cZ6Ad4dB3fGgcxsOAZzgH9YQzRGqdA2QGC85hGtm/YoLMYsJRSnoBjfzqjnWfOJPvMuQls2pt4Bi2Wsw9gsKfslyKley3FnIXudY2zznOYEJzpwAKeoQ/7k4CnqWlThEcyV+Mx0UZOgWEBhOKxGA67JMmlb5gh6brQKLBrWkxAASPym8obIPCbxMMkoA8bkhrfZnIAFU53mGdhNyXpY9gOKr+ZJzhiYXiYmg3EForJUjV5NondhmMSwNR9jhFjiqR+krUD2v8OUuOiyuU7QZUFLGC8pGqbzzyM34FKOvcioIP+9VOUTwZEHMgkQy+NjW2TY+iAC+nO5jZvkhiQ4oXz8nh+bTNvNMD4qYsBEP+T9BzyGAR1X+Eoxh7tZTMuB7jxug8YMn50N35Oiu4xDmAD8ODHgD7GUqVWVoBQ0Ni+tw9oAvpmgrMuDk4SmP1IG2CfkNLscUDVPvS3tcS4SX/mjBGRtAALYH2jjTbKpgeSv/dRdA91McABeNgb9qv9BKwwLRT+LbRzAKQ9a4/qt/ADiux1Q3tbygoQaF8xfWsPIBDU+MTUVklsJNWys9w+c0bRLjgrAVjnq3MYMO3b0MR9ziKmX/sXfzAWAJm5lgAHDDP70qzRljl3vRNAB61oOMwObS/Wu3pEAGGwx0ONJFpMb6C82NTqPPMdUkXtAn3bpBhs8ZmDEWNzXe1BZCNTcfkhuZOAaBaYEfTNNKEfDBMS1a/m8LSJqGEdrL6jZWjWxvIcqJYqzRj131+Ypc1tDICN56tYSM1W2wAoqrl6OR/Mz/3UeMCPZ6PbYK2Yu3vcqx/RGH7ztRgoBnmwvsv4fdkBwmA0s4+ss3eqnvRV3O/d807Z47X7xfvjPSr2hr8BBu9nbX9AgL3qnbKXaJUAEXvY3ihKqjuYgRQMhDki2tAoUFaAQPNZRKER8PgrEcBoq4pWDyAUwguhirkSw6ZlABBol5zBg2VSZDqjocL4gVx7jDAKkNYCBGADQLDvjMue55ODBwAT7XCeHNpqd9/VLQUIZSEHjQI1Og3AQIdqWcbr0JYhrG8SEYc4G28ri5BgDCRCUgNv9aq1bgcIZVkPvkLMFkxwnGaZIGqly7KMs+zjKCtAcPbQGgGCfKacBzRItcWVAAQaJ0IQ/xmmW3uicJwebqplJgJ902AR7mg4nUl9NQi0EPxgaGRpiAlZtMFAMbNEswS9su+hVo6vJwACAhbSdWyagbcTjQIps1aT08oN2O6+AyA0j+LMf5zXMIi+TmzNe0q1eyorQCioPlAtBqZdETfAYWG2JcUDEoAFB1sMm78LDUIR5j6YBqHw1aLNJbDQEtCc9gUIRf0HGgPjBBCYpT2PaTjayCnQMwBh5KSKHqpAgQAIVVjF6syh7ABhIEoTJpifaI4Krae8BI2YJV3PjMocXNtI//xe9CuCgo/CQHkNRHTxH6NJYH7jO8Ovpl4Z6ersmvbNpK0AgcqJA6AohGY3G4WHPrVT0SBKnwn/qxeux5GSun4kyYA4H4pS4NDHJgbBhjTV7NVtXn8BEJpHy+hp5BToZoAwktnzDZPvhqmqtvFzkQem0Vb4w/CPEFYJnBShwY32Edf1T4ERAQQMuMhx0Fd1T+1owaicqJYsvFTIvJ854mGiQhItKPU/RguJ8s52jxBFNnB2MM/QB5WmDaGvvs+TGEgYjCgC/emHI6N4bc4x7jce4/I3XwSe3pwZefK7FqLljOVen0OwHF1kGDRen/mxuY0XWqZakzeBSguK5QnOAzdMGeV87QIglHNdenVUvQoQmrneRU0HplE8pZU+Ws0cdzf0NSKAIOZVfL9wlFoHJeojjJPnqZApzBczxkR59HO0E90gJwDpnv2Ix7QF5hCDwQrNw3A5qQhp4WQopA+j9n3fTFkAghBF4YOYvGcIr+HVyolFiJ+YWgzevZxu2MmMzbNoE3jgmoeMjhJuyM3Ak9d8ZIhDLF64gIaYXzYxoYo8doV7yVoIFbs3tAjl3P5lAQjAZYDIcu6Rdo5KnQsCSCeZmigXIYjRggJ9KTAigNBfLQaOJVQ+YvMxYnGvcgHwNJUoiZ0Igy0K0nBKwWg5vEimJOZVSAuGj8EDCF4kGQ/lF5D/oG8DEDxP4hcZAan8mR0wb4mImBp4XAvHwvSZFdiq2LhkfWQeAHR87h5jA1gUvTEG4ELojzhy4IdjDMDDa5dZQT9Ahj455AgLilY+CpQBIADHtG+93AB23unelbJXWG31OjmEOwkWAyC0eoW7t/9hAQRSssQ7VDuYOtMBvwISe9EUSCKhk7wlFmIXko0LgxUXK5mLGGtJYdzPIxawkPiIpkDCGP07SMVzS/ValKBlAqgHECSKASSo/zFvDBuz59XqXiYIjF/MLPDhepIc/wTgA/Ng/gBWJCGi/ZCyk9ZAZjmgBoCRXQ5Y0Ccww0RBM0GzADzQjLQjP3n3brvOjbwMAKFzsy/Hkzm3AfNqTzgjJDCL1jkKBEDoHO3L/uRhAQQxspghcCClLwYq456CLhp1FYne/xJdcBxkRsBgSeoSYBQAoajgKFMik4WMiJg8KZ/qH0PWN8brIHFdvXhrzwM+AIu+AME4JAHiHwA0GI+cCDQT/BnkqfeZ5wEEstgxhQAnNAHSEdMYABQyH9IquNczmT4ABKE9TCq0DVG0przbPgBC59cG+KY54IzmrGB+jBwKnVuXAAido33ZnzwsgFBMqj8Tg5eeup4dHqPF+GkImBbUAagFCJx0RDbI+Q8skOiBAIwcE2fPVz+BrwJVvn7rtYEAAg0FMweNBQ0ByUUSDmaD0aNHZ82H3OJAAK2BVJ6YPvNBARA8UyleKTxpJYAixUQAC+YQzjFF2VuOmPqJVj4KBEDo7JpwEpbmWew8LRvgL315aNw6ty4BEDpH+7I/eUQAARAQbYA59k1rqSId8wEpnFTORCBKwLWAg0yB7G5s97QRJHOfiwigrsesSeq0B5L26MvfHAzZcKkpaxvGL+KBD4F7aRH0JYzG/T4j4ftdjIePAcdEh5PIBH+LklCVjNMhwMKJkZZBow2hZZCKWJyt+QMLsokpHkU7IjqC+jTKjZZz6wdA6Oy6cPz1/jAjOjMU9hGlREiI1hkKBEDoDN274akjAgidmCCtBW1BXycvqTXlp29VY07xDA6Pcs8XjlW333571izQGsgTroAIc0O0clIgAELn1gU4ZzJkXihyoQD1/IVEQw1U/rdzo67+kwMgVH+NhzvDrgMIw53oSO/jdwEMiM6oBQBCIPlMcK6kNeHnEK28FAiA0Jm18Z4IAy58i2rD+pjpmCFVGo0CO+1fnwAI7ad5tzwxAEK3rFSMsykUCIDQFDIOuRORSAAA/yPRTLVhfapJFqHGcpZEaz0FmFQllBMKzjFchFe0oEBfCshF5P0crI31LyJAG5oQStkV2fRH0jggyoQocVIjzfQcYgqEFGWj2Us5SBY+CI30M9A1/CZIUfwk+Di0qtF2sO3KGSGktBsbrYwc7BxM+zYOp3w9iqiZocwvAMJQqNWca71bNAfMCHwN6r1PzHQikPjx9HpehOZQvX4vQsnloJAvRjQJvyvRWd0aRcJnzL4Shh5+LK3ZOcptD9baBhDYJ6kf2flH0vgCiDKQermRVthH+RJwUpS8SZpm4ZnNikiwmYVQAi2kqFY1OSiuvPLKXHa1WxM2YeRMOXJO9G3WVYZNYbMA3VBaAIShUKs510qdbq04KivjWy8pkPfPuyFfinK/0ZpLAeZPIOyMM87IqeQ5hxOA/GY67Uanak7iEtM574TAX3755c0lWvTWMAXqAgQSt+gDdndSd20TIiiyAEqVGplUSzvgM+pE14sKIC34LcUyaVd4IYAgdHDMmDHZvs8uWdQ38DyhkbQMGDhppF7xJ5tG1IKkR3IWFC8BdRoJHnKGPDXx2JC1fAccpoQyuk8NBwmVgA0Jn5QpJfm7hs2UgxUpXaSEeuiiGTzLYSdUUgIm0hNthjErWSrCQQSEQ1JExwYbbJBpYKycL9kDJXISeWF+JGURGcJE+zZqQiGbcjFw2kRXESDCNq2NUqt8I/o246PJuOeeezKAcGijuZBP45Cm2hisEU2ELJiiSLyEslSKOllttdVylMgVV1yRr7dOQlHNCw2sp4yXxqFfTp6eZR0lmPI/mvuNhmgjqkR2PfOybziEbrHFFnms/newSbolVE4eDfkrhgq0AiA0/M437UL7V64DOUL6A3SFjwJJUKRQJ1MPN23iHerI++Mdx0C944CBdM7eR2ecKDAmBZUUfSbku5sawCnCTTj8k08+maNgigR73TSPKo21LkDoLw+CiWOWNqX0xhgidAcAYDCvvPJKlhT22WefrCYWZgg8YJ6Fatn9mDwmBP36nHQPMWJ8Eh9hHhindM59WwEQqJ3kXsC8hC1iwsqDAiDsnSIfMEVMEjDAsFWdxIB4XDMxkGQxMH/LuIhpUtP5EcdtbA5AL6I8DUCQvA5Ud8AHDQS1OMDjOZi5lM+XXHJJZnIcH9lnMVUMFQOmSfEjzBIgqSdJAyFqpRsXZi6Xg+uAM/UozMG8a5vDg1aFOle/cjcATEWYp1TYwJSQUqmxgS8x68ahf+NGM/ORmEo+CEDHdULXgEU/aG5NqZbNxzqbL9OR6+W0QBvjBhLYumiNACMaHJkq9Y2OaCtWnlbH2qCX9QUcaXj6gtOBXrwACO0/lmiyZBwFdgdqTHBTTz11Zlj2X7ShUwDQIjQ4AzBPoNoZw1RHqAL0mXGcmd5N51W3+H3YH8LjnUMEMucHQQ1PUYBPzpxonaHA5wACiYDUD8VhMECA3AK10lyRG8AhD62Svm1UyJbkLlnKxRdfnG1h8h8cc8wxeWbyKmD+2223Xd4IHCQ8B7MhKZMu9O0azPkXv/hF/rs/gIAhyPaoH9oHfXqulwSDIaVieF4YzAfjYY8DIEjikKlDyyGHMQE2JPXClmcMaCAEEkAwPnPGtIEb39M6YLxogNlhsoCCcakZYa7oAM0bEwDjOkwScKinBTBf9SVoQjBXkjsGS5pHQyAEoOrbOCZJWOXlIs17uajsqR71Q1vg4PA/YGDO6EYDBHCgDy2HkE79eKa020LUZJA0L3N16LjeoQQgWHe0BxQcVueee27eB3JjWHt7w2EFLJAygUdaG8DDc+wtQA3IBCjd7yAENIyn0RYAoVFKNe86YHUozfs3FNA3lL6rfi2A4Lyk1SQcEFaKBtQTsJxhNI3OU+8WM0PZG/MsQYxgY06EF9om5yZwQCvp7I3WGQp8DiDIcsh+RbKnRaBuxpgw2KJh4iR8qnWMhzoe48DIPvnkk+yARuWoH0zR3z6nXcAgeDtjUpip7IrqG2DENBGYIpuZjdGfYwpGBi17GU455ZTcj5ANjJwWgTqbBI5pAzwAAfOG+6g3JUDCfLxkpBlqctIsFR0mZawYHwb+y1/+MjNjAIF2wzUYJBMDSRrAWGGFFTKtaDzQi/TuhSXxoxMtBpphqMamZoQ89YBJfy8wTYA1MHbomsahqJTZH0CgXiR1Y/6YrnoXTCDGiU6AnnExsRiba6jw0JKpBdOnTXA/jQ8aeWmLVNRMOEwG5o7W5mUsABgNigYgFAlzAAQ0A0zMw/isLeCBbjQ6no3W7gHo7Ccgqsh4GQChM4fCSJ4KsNsb6qREaz0FmBq8vzRxNJXeH07ctKbe57I3wN45QPhi6gQi/c2fi2aY2dG5Fq0zFBiWiUGqZFIxRoY5AAGkUUwdE3XQY0ykRA5KmCZbM1UkswQVGcYLKGCUAAK7GqBBKsHI+nPCw+j1RZIHaDA2kq6Ya4wX0CiKM2GEJF8M0vMwJmgUE/QyAQikXeMsAIINytygP9K+sQIINAauASYwSZoKwKQACHwaSMZMA15W2gtjNB7XAh40MhivF3oggMA27/noA3iZh5cEEOkPIPicZoSEZv4kdZ8BcECNdWBCwZABAMyctgQN+wMI1H2uYVKhlQAKzZ2WgWpZPwCflxkNMXnaBOtRAAQaJWvgGb7fdtttM5Cy3rQX9o5xFemsARg2VHtpKF7voUHozAHS96k0RdaCJihaaylADe+88R4SbrxT3ieayUajvFo7wv57Z6Z2DtNQAjUES83Zx6RJy+rcJlQ4T6N1hgJ1AQIVL6aIqfQNkyHNOuChPUiVvZrEx9btekwTerXgNiyGQkvASQ2ixSRI9BgXBopJYLIYLG0AqZGDHOTIaaW22SxF6AvQgdlSQWFSJG7+BJ6J2VBdeRamaaOZDxOEdLBs85gWqZhDDMbOXIKRernMw7j8TYIGQmgTvHTs6EwHrqESo8rD7B2K6GA8aIDBawANsw1GS/ImWaEZqdrL4fPaBhAYO0ZJsva/5zoEvDRo4sXqm3ESbagfASH2PGNAH+O3ZgCK53kuzY0QF3SiZUFv/QNw5sFhEPgrgA2a0RQAFeZOe4MRGI9W+KAATyRINLcevteXwwBo5IdgfYEG+4ekYL2AGt7w1gHIs27WdygtAMJQqNW6a4sy6jRw0VpHAe+td8WZCbzT1nrn0J1gQ2NY5sYkwgRN2Cias5NJkoBGw2t+HMqdF9E6Q4ERhzkCBtTZgITDn0TKqQQgoFIv8g/UTo9qm+rcBsEMXff0009nZosZY/iYLYRc2/TFGa4ALUU/nmscfjAbDoFsduxxGKdnYZAACrU5DYSXqJ6Pg+dhwhgwk8RQwoQ8x1yMp8gcVyQuwXzNt7ZhpiTu2sYUwRmQmcU8zKevh7jDgRq3tmG+/ACAABJ4Ld3NhY+C74YilQ+0Jc3Vc8zVmD3DWPvLmGet0AINinA4a2Jcxg5Q0m7QmtAe0PYMpQVAGAq1WnetdQYS+vOvad2Te6dn5lP+PfyNAH3vnwbwE6AIO4M5jpaNWvgAIcH5QSuiESqchUMVFso2t24ez4gBQt/JMzVQq9MiNJpeFXIkodMakMzdx2ZNy1DbMHiIsnghhkN4JgxMmdRb6+gznL5Geg8GCRjVNnPntDdQ/nqAjPamtjkQaAa6NTGKubCn0iiQIurF1A9E7wAII92NcX83UIA2km+PSCxm3lqnT5pC2jehzN3W+EvRKtBaFoJbAITOr2LTAQIpEaMfCqMijVKF2+ztQL7GB2QMRTvQ+aWq/ghoIazJcDzdAyCUY38UaX6pvqM1lwKikkjZTHP8gfqeX/yqmFK7IXqhljKFIzQNKJNk0WiUOTMzR0brDAWaDhA6M414aq9TIABCOXZAOCm2Zh2E/nEW5v9V+BzUPonfkRwJxfUN8QAAIABJREFUTKfd1JiCOaULzaR1pgUtmrnQlNCKROsMBQIgdIbu8dQmUyAAQpMJOszuOKRycLUe0ZpDAZFUfA74ZnEQbpYfUXNGN7Je+KxwFJf4ibagVivCuVxumkiuNTIaj+TuAAgjoV7cWxoKBEAox1Lwq+FN38qiZeWYaXtGwaGa4za/ApFXVQIHKCh5m+gy/gad9glrz4p211MCIHTXesVo+6FAAITYGlWjgARCRWp4ic2G45tTZprwVxNqLvxbErZo5aNAAITyrUmMaBgUCIAwDKK14BYRNmpr1DqbteAxle9SdJOcJbLYyoNSRYfqIkmexEjRykmBAAjlXJcY1RApEABhiARr0eXhpDhywgoVlySIV78EclUzK6CQpG7Aj6RIQtejlZMCARDKuS4xqiFSIADCEAnWostlIJVmuUh206LHVLZblWSBA1lmefB3Qz2FoS6GcGaOiRLZRRrloVKvvdcHQGgvveNpLaJAAIQWEXaI3Tr8i3TjQ7y15y+X58A+ljmQbb4dOWE6QfT77rsvV+uV2EltnmjlpUAAhPKuTYxsCBQYCCBIf903zfUQuo5LgwItp4D06WqnULvLddBoFtqWD6zJDxDWKBOkKBdhjVWdZ5PJ1rHuAiB0jPTx4GZSoC9AUE+DulsstRTOSoFXUV3bTBo2oy/aA7SOAjuNU/P555/PRdZkDAQQRpJKvvGnduZKYZuKv+27776R36AzSzCkpwZAGBK54uKyUqAWIDhwlaOmylSBUuEvlSJlZguJpbUrGE6KQ6Mvh0RJkOaYY45cpVWBuKo2YY18UxTyCgDZHascAKE71ilGOQgFAITpp58+V+6UunWmmWbKqtrZZpstvfbaazlkTCpX1eGitY4CUv5KfLPXXnu17iEV6VmGRAmCFI4TrTCU+jXdSIJbbrklnX/++en4448fsBhdN86tqmMOgFDVle2heQEFithceeWVaYUVVkgbbrhhTt2qhLQm37tqoQ5kqs3i8x4iUdumqmyviqkTTTRR257ZjQ/ic3DYYYflfBGyJFbVIbFYG1Val1566VyxcbHFFuvGJevJMY/l/OzJmcekK0cBoVPKhdez4ZJsZaXjGCWEbCjt/vvvz/4L88wzz1Bui2t7mAKjR49OZ599duILA8AWP8AqEPXyyy+nQw89NKvaq5gEqe/Sn3TSSYn5ye9o3UOB0CB0z1o1faSSlWy77bZZHb/DDjukWWedtWslGWlpf/7zn2epbOqpp65LK9Xu+CUccMABafzxx2+YnkXKW6FnK664YqhHB6Acc86vf/3rbE/v5XbyyScn5YqBgXptvvnmSzIIzjnnnJUnk6yQzHsA08QTT1z5+VZpggEQqrSaQ5zL66+/niXum266Ka266qrJoUW6ZqfvNpUnByi2zXfeeSeXxR1rLMqxzzeVBuV9l6FugQUWyKFWsrg14hjmkDvxxBMzsNh6662zv0O0/6RAOCn+myannnpq2mWXXfoFCLRRsgjONddcld5GH3/8cTruuOPSpJNOmrbZZptKz7WKkwuAUMVVbXBO8gN4eW+99dasPuddPGbMmHxobbnlll2H9tUBkH1uzz33TN/61rc+owK1rvAqyVnkQ5hxxhkTcMTsIC4bUFBzHkCS3a2/9u677+ZSxqIk9t577wAJdQj1yiuvZF+QnXbaqcFdWM3LTjvttBw1058GoVcAwoMPPpg1JbQpM8wwQzUXu8KzCoBQ4cUdbGqffvppOuGEE7L39GWXXZZTvFLPs5865KmJN95448G6KdX3DiTM++qrr87SPueoUaNGpd/+9rdp9913z45S5qsssR9AAXi4/fbb0yOPPJLnr3IeUwLTS9+mP0DDc3ig92fOKBVR2jgYtnb7qhGtTBuH1fZHnXHGGWnHHXfsFyAA4RdddFEG5VVttAe0bpNPPnmO0ugFX4uqrWUAhKqt6BDno6IadTyvfwz02muvzXXZ5YTnlyAVKpX9NNNMkx316qnuh/jIll8uIx0venMCeiSg2WeffdIEE0ww4LMBBmDhxhtvzGYXzo5LLrlkBhXi1Mcdd9zM+JhfACpJmGhgSINx+P2btAEQ/k2HM888M78//WkQ+B4IB60yQHj88cfz+8d5OFIqt/zYa8kDAiC0hKzd0+kll1ySMw5SCVOfv/3221kCxwy1q666KicdYrdff/31uyJWm78AsMO/gOSyyCKLDGtBnnnmmfTAAw/kH+YL5gdAaaqppsq/H3rooXT99den7bffPsey97rUjMhhYvj3VuOQZ1/0BxAATgChqpExanLw91lmmWVy2HG07qRAAITuXLemjZr/wd13350dqjj6ySfAUVFsdpF1kGc6Zjn//PN3Rbpih9NTTz2VVZvN8poGnGS9+8tf/pIBFVMDFSqNA/pst912afPNNx9SdETTFrFEHYWT4r8XQzphe6JXAQITHy0bX4zIO1KiF3SIQwmAMESCVe1yUrAkQrQGJGR1C2gVOBVx5ov2nxQAQIQ+qjlw3XXXJUlvRDU4CMW993IDmjh/cvzs5ca3Zamllkpjjz12Nj8xzdX+nmyyydIWW2yRtVFVa7RtQoKFHVc9SqNqa9d3PgEQqr7Cg8yPVCy7mdS47IS0CHLDsyWz20ftgn8TkGT8hz/8Icf433bbbdkPgfp05ZVXznZkAOGb3/xmTvPcDX4aPb7tWz59UTT2Si+anfgd8OeRCCpad1MgAEJ3r9+IR//RRx9lW+FBBx30Wdieinw0CJIosa33aqNZuffee7NZAVDi9MjhccEFF6wbvRAAoVd3yn/Ou1cBAhAtY+lRRx1VSe1Ir+3wAAi9tuJ15stWKma71mEKYwQaeOqrhNiLjYMmZ01qUoleBotUCIDQi7uk/px7ESAwL0kQJbxYPpIql63ulZ0eAKFXVnqAeTIpSBTEZlo0Jgbx/nfccUfOlVBENQS5+qdAAITYHQUFehEgPProozm8U3bWejlEYnd0HwUCIHTfmjV9xLIJcqbqm16Zw50yyWo00DJEG5gCARBih/QqQCBQ/PCHP0ycL6VUHkzbFjulOygQAKE71qljo5RTwIsvDFIq4nDACw1CxzZjFz241zQInHg5Op977rlR6ruL9ulgQw2AMBiFevx7cdyc9YrkQ0OpgthrpGumBkH9CKmfVdz0t6RPANpgkhkHU2GXs88+e/agZxf+2te+Vvc+nuZPPvlkzjDZN6TVM+V74HQm54N1F60h0oW06D5JkWQE9L+8E5JHFXUu/vjHP372bEmB1MAoa3vvvffyfPjaNCtvRi8BBI7OfA4kJZM/JVp1KBAAoTpr2bKZvPnmm9kzWTbFDTbYoGXP6faOmwkQbrnllrTvvvum999/P4eeYuLCxgY7gNWUEGYm3TQGfsUVV2RH03rADviQQXPRRRdNBx544OfIX3wn5TagIVGUGhXqTwApsgS+/PLLOQ23XBqXXnppzqUh7NO4ObmK/AA0ZOAUKdMs5tvsfaIEuPH96Ec/Ssstt1xTuu8lgKAqpZBOyaG6rQpsUxa7wp0EQKjw4jZzaiQszkcyo0Wp4/qUbSZAWHfddROnL46iGLIS06R35h7MGyMrUkCvssoquXgU7QGJHrNWP+K8887LBYEc3Jg0qR7wYCZabbXVspe5z4Vu0jhg5quvvnrWVnieFNtAie/lflAlk6lJVT4RLhxblQk///zzc8ZAYzPmk046Ke2xxx5p+eWXz2OggeLout566+UaF8ADwONZEip5juQ6imgBHZLsKK5lPgAHrYR+1NegzVAM6tvf/nYGP0CIfkSZyP2vjob5rbDCCpkW5gtk+YwWzLxpNFQyNRYZQtUeAagAKd83o/UKQHjxxRfT9773vbzmUa2xGTunXH0EQCjXepR6NBiPgwCz4NQY7fMUaCZAoLL91a9+lQCFTTfdNCdh+tKXvpSZMabtO9U2SfbWhPc46U26ZzksNtlkk1xHgwYAo8bYJb7CEGWCXGCBBbL0jzEyZWDYVO3uF9VSJH5S2bNY63nnnTebCpgsbrjhhpx5ExMmgWPUtBCuF/GiFgFAg5nLOsn8QMoEMs2DA6ywWuDBZ1Lz6oO5Qr9KaxunuR9//PEZJGDqwBKNCkDgGv2Yg/kCOfpWVIzGxLhUVEQrWS6ZVGhDJAdTpAzIKTJfGl8AhKG/0fYKoGnPRaseBQIgVG9NWzojhznm4eB1GEf7fxRoJkAgmakGyLYPBJCAqe4lacLEDzvssCy5YWyk7KKeBjW+w5qmh6R+xBFHpOeffz5dcMEFWYonNUsDTCInZatGCVhcc8016YADDshaBqWKSdmK7NBgFI2JAROnXbAPjIH2AviYcsopM7Bwn5odtBaF3wHtAimeecqzjVUNEJExygHTcgAuxrjffvvlbJQ0VsxawIsxABNAjTkwbxgHALTRRhtlGrB/i8E3nvvvvz/PwVyAIr4UxgNcqSyoYql5TzjhhPkef3tGAIShvc00NuinMFqENQ6Ndt1ydQCEblmpkoyTXbuQ2KixI6qhNQABwyZNA2McBfkVAA2YooJamO7vf//7zHRpdLTLL788A4q+AIFqHWCgfnc/xugzfWC2inPJfMdEIO+FKoOLLbZYltr1SaKnXcD4VcakufBTDyAAEfYECd39slB6ZlF6m1aBJgp4ATT4QDAx2FcqYwINQMFjjz2Wx8REwMYNIKy44oo5LfjGG2+cAQnNiWyftAM0LfYl7QYNA+2BPoAqTnSFqYWZRBEhQIEZgDYGXfggBEBo/JChjVH9lXbJOobvQeO066YrAyB002qVYKyYlgMVUyJFOqij/ZsCzdQgUK3zK5DhkjqdAx2bPMY6atSoLLkxHWCWzBGYpxAz3xcAAZPkVAhskKZJ5P4HNKj9PYPUr6YEc0MBEKj9SfOup7oHCjBx5gNAhVmBdqEeQCCpy50BuHB+BDaAEYV7fDdmzJhsMvB8IILk7ruhAgRFjmgfCoDARAIw0AaYq2cBCDQSIjmMw/MABKYOJhnP5FhpDKpyBkBo/E0WKWPvoG9oDxqnW7ddGQCh21asBOMlkWEe0003Xdpyyy0HDb0rwZDbMoRmAoTnnnsuM3DSNHU6uz4GuPbaa2cgIOYcIwYSaAAwOtIyRl4ABFIeyZrvANU8hg40kLCZiKjlrR9NEIAAhHAOBBCYB6jnSe8aXwLMwGccEQGAegDB3gBCmDBoKEiYmDaggWGbk2qPPgdsSP20EQVAoNEwZ9oRGgSmCGDFHJhEgAlmhVqAgDYcFfUNKABUzCrGjlbGVAsQAC9mB46UzDfCN10fAKHx18ReEBYa73/jNOvGKwMgdOOqlWDMHL0csIDCbLPNVoIRdX4IzQQIZoORs9ljzjQ1w/H5cK8fDF9/tAcc+EQEDNZENWCgfjyfKr/R9s4772SNB/+A2oqGNFDG4DOmi2aaqDgxygoqm18j/fKLAKIAima3KkcxCGvld0ATEynYm71zytVfAIRyrUdXjYbqmqRI3e2w7/XWbIDQ6/Ts5vlXFSDwRaF5Yvpi1opWbQoEQKj2+rZ0dkLECoc5quJed1QKgNDS7dZVnVcVIAhfZWLiB8P0Fa3aFAiAUO31bfnsqHWZGiSYWWuttVr+vDI/IABCmVenvWOrIkDgbMpX5eCDDw7HxPZup449LQBCx0hfnQdzKhM2xgu+l7OpBUCozp4e6UyqBhD4r3CSlahKfg7JkaJVnwIBEKq/xi2fISc4YWPCyXjHS5nbiy0AQi+uev05Vw0gCB3la6SU81xzzRUL3SMUCIDQIwvd6mmqD/DTn/4058gXjtaLDUBYZ511enHqMec+FBAyKVSzNoKjW4kk8sR8aBFk7xxONE23zr3Xxx0Aodd3QJPmLyTuzjvvzPH2MqyVtXJfk6ZbtxsAQfKoaEEBuSAU06oCQBDSLOeGJFlyn0TrHQoEQOidtW75TAs7pThpee97rYWJoddWvP/5VsnEIDGVFNpqgDSSXyJ2QXUoEAChOmtZipnQJKy55po5Fa8fTk290gIg9MpKDz7PqgAEtTBU6VRAKyq4Dr7uVbsiAELVVrQE81GZTxpe6X+lse2VFgChV1Z68HlWASC89dZbOWJBeu2FFlpo8EnHFZWjQACEyi1p5yfE1CCfP89nNvle8UcIgND5vVeWEXQ7QPAOi0x69dVXc8XLaL1JgQAIvbnuLZ816UNuBBX9mBx6wdQQAKHl26prHtDtAEHZcA7Himf1khawazZYmwYaAKFNhO7FxyihS/rgsNhIcaBup1EAhG5fweaNv5sBgiqcqmAqZqXmQoQ1Nm9fdFtPARC6bcW6bLynnXZaEtWg5G/VEyiVDSAIS8OoFl544abtGk5rf/7zn9M3vvGNZG2FtNZrxx9/fJpxxhlzXoyiqd1x7bXXplVWWSV95StfadqYythRNwMEYY3HHnts2m677dI888xTRvLGmNpEgQAIbSJ0rz7mo48+ylIIJyfqyioXeBkpQCC5vfbaa3mrvPTSS5mxM9U899xzWQOD4WokO0z673//e1b/KuWMztTCktrMOuusuTTzFVdckQ949uSpp546l+Z99913cwnpWWaZJT/rhRdeSJNMMkmafvrpcyZMpZ39ds9UU02V+1WpszARXXbZZenhhx9Om266abr11lvz2n744YeJY6r+/Yj9l7N/pplmyiYmkS2eJ5nW4osvnkaPHp1/V3kvdDNAkPDMmqmxEpELvXpy/3veARB6e/3bMnvMbq+99ko77bRTWmKJJdryzE48ZKQAAfM+8cQTs8Zl0kknzeFlRx11VGbOmLp49GWWWSb97Gc/y8wWoMDc99xzz3TGGWdkhzIHOzDhMz4gq6++enYYJbUrqHXyySenV155JYegsjGrwPniiy+mrbfeOjN035Mg3ed/yX522WWXDEK0AiDoCyOhipaC98knn8z5+YGXbbfdNt188805cdZiiy2Wn7fccsvleejLXthvv/0qkUSov33WrQDhiSeeyOtz1llnpSmnnLITr1E8s0QUCIBQosWo8lBImxdffHEu6IT5VbHVAwgkej8aiXmgRDNvvvlm2m233dL888+ftthii3TOOedkKR8zffDBBzNzBSAc3gcddFCaYoopcu2LpZdeOimYdcABB2SG7/qNN944368fKX/feOON9KMf/Sgtu+yy+ToghHQojG3MmDH5u2OOOSZX6pM1j4QPgNAOeE4h7RcAwTPdC3y4TygcLQXgILxV/+bjuzvuuCNdeeWV+Rr33XvvvWnmmWeudNKdbgQIwOUaa6yRAR7H4mhBgQAIsQfaQoG//e1viV2aunqrrbaqZDW4egCBLZekjSGOGjUq2+77axjqvvvum+mjr0022eT/a+88oK2ozja8JRQhAqGDShEQqYYiUYliCAQFEwIqTVAEMRBJIBakBbEgIKBRVJAQNBTpVUSxACIIaCBAQBGkqAmYUJQSIpgf/dezsw7rerncc+4pM3tm3lmLdeGemV2eb3P2O9/+9rft5M4JmUzWLCswKbN9lDJ/8IMfGA7KQgjgLahZs+YZb0Pfvn3NokWLrEBg4sblz3HcxAwsW7bM3H777dZTwGeUjYBAHOD+J7C0YsWKOTYzu0DghD8mf/pWvHhxu27N5IhAoM/8e926dVbUIBzo17Zt20z58uU9GXd+VRI0gYA4WLhwoZkxY4aZN2+eX9hUr2MEJBAcM0iYm4MbGhd29+7dTcOGDUPX1ZwEwtGjR+26P+538kHwhp+bQODtH4HAGzxrwAT2kUuCZYD333/fxiEwSSM8iDNgrzpv96tWrTIPPvigDQRdu3atXfvn3wgERAlnA2zdutWKBLwO99xzj20Ptvj000+t6Khfv75dMuA5hAPeg3PFIMQ8CNT/wgsvWIFCtHv79u1trAkCoVatWrb8mEDAg0C/8HZQfpivoAkEloHwHMU8WGG2jfqWOAEJhMRZ6c4UCRD4xlsKb7CsfzPBhelKNQYBDwJf0kyqTKTsGGBJgYmWQEXEAeKBuAQmYyZvhAcn7PEmH0tIRTl4A1hKIH8+efTZccBOEt72CWxcvHixmTZtmvU64JlAsHEKJ7EMCAQCFFeuXGkneson+JALccIE37RpUys0uGfUqFFWyLBkwXICz7PFtXbt2lagxAQCv4/FQpBpM8y7WoIkEPAgMRbwIiEQchOxYfr/qr7EJyCBEJ+R7kgjgZMnT9q3WSYHJrEwXXkRCEz4TPBZL76YiVfA/U5QIMsHH374oRUHTP4//OEP7UTNzgPe+PEcMNkTqIgXgAAzXMX8jlP3du3aZT8rUaKEjQfgLZEdDtRD3dxPWcSEsNuB8oh54O0eAcIzeEAoKxbNzq4KlouKFStmlyj4jEBGhApLHgRWsrOhbt261sbUf/z4cRtkybIF7aZMghfDHCEfJIHA+CLwlcDVRo0ahTo2JEzfN170RQLBC8qq4zsE2EaH25u3XqLyw3LlRSBMmTLFTrBZL9bsO3ToEKjENIgMlkLwQLBFEu/Ca6+9FonEWLmN26AIBAQp3gO2qRL4itDTJQIxAhIIGgu+EMB1TaAdyXwqVarkSxvSXWleBEK66/arPCYYYhtYasCrwC6GcuXK+dUcZ+oNikDAY0Q8CstReH10iUBWAhIIGg++EGDdk3VxAuFYy47ts/elMWmqNIoCIU3oQldMEAQCy1HEvLDEhEjIbQtu6AykDiVEQAIhIUy6KRMEiMxne1zr1q1tIp2gf0FJIGRilASzzCAIBHa74Dkg42ZUTlwN5mjyr9USCP6xj3zNvMEQqc8aKNsfg76rQQIh8kP6DADXBQLBwmxJJTcFO1J0iUBOBCQQNC58J8D2N9LwsqshyPn5JRB8H0rONMBlgYAwZ7sqHgSSl+kSgXMRkEDQ2PCdwJdffmkP/yFLIGcABPWSQAiq5dLfbpcFAmejEBxMNk0OUdMlAhIIGgNOEyClMMlzSAlcp04dp9t6rsZJIATSbBlptKsCgeDg2bNn28O+yFcRhuDgjBhQhVoC8iBoIDhDgIN/SLrDWQBsmQvaJYEQNItlrr2uCgRO/HzkkUfMbbfdZtNxBz0wOHMWVMkSCBoDThHgzAK+vEii1LFjx8B9eSEQWNfVJQIQIFtl4cKFnYJBgq4dO3bYU1UlDpwyjZONkQfBSbNEt1EcSMSXGAcUXXrppYECIQ9CoMyV0ca66EEg1TZxB88//7ypVq1aRvuvwsNBQAIhHHYMTS849IcTAjkjgDMbgpT6VQIhNMMw5Y64JhD4f0XMAed5kJhMlwgkQkACIRFKusdTAuxqGDBggLnmmmvsG09QLgmEoFgq8+10TSCQb4QDmaZOnarAxMybPzQ1SCCExpTh6ggeBDIszpkzxx53HIRLAiEIVvKmjS4JBE7TZAtx3759bXyPLhFIlIAEQqKkdJ/nBF5//XXz5z//2UyYMMEeJez6JYHguoW8a58rAoHDtObNm2fYRsxpjeeff753EFRT4AlIIATehOHtAOumo0ePNmXKlDHdunUzhQoVcrqzEghOm8fTxrkiEPbv32/Gjh1r2rZta6699lrtXPB0FAS/MgmE4Nsw1D346KOP7DkNXbp0se5Rl7dmSSCEeijmqXMuCISY92D79u32tMYg5hbJE3TdnHYCEghpR6oC00mAzG+LFi0y69evt1kWXdtXnrWvEgjptHywy3JBIHCUeu/eve2WYaVUDvZ48qv1Egh+kVe9CRNgqYEvOibgHj16JPyc1zdKIHhN3N36XBAIHKV+4MABM2rUKHdBqWVOE5BAcNo8alyMALsaOnXqZMaNG2caNWrkJJhMCwRcxnzhcyx2Tjn0ydxHMpyqVasaPC+cjMkpmXm5EGPk6b/kkkvMP/7xD1OyZEnzxRdfmIsvvjjHsqiTDJjlypX7zkmclEP9X3/9tW1zpUqV8tKMwN/rt0D4+OOPbTbSpUuXmgoVKgSepzrgDwEJBH+4q9YkCLzxxhs2idITTzxhKlasmEQJmX0k0wLh1KlTZubMmaZu3bo5uoyJ15g4caJNV/3WW2+Zhg0bmsqVK+ep02vWrDGvvPKK4QhutsXdddddtizWsIsUKXJWWWS+fPnll839999/ZqdJbFmIpDzFixc3I0eONA888ECkJio/BcLJkyfNvffeaz1uxO7oEoFkCUggJEtOz3lOgDfoZ555xhw9etT079/fuXiE3AQCe9G/+uoruyMj2UBL3srfffddK45YX+atfdOmTXbiZo2ZN/k333zTNGjQwAwcONC0adPG/OpXv/rOm31uRjt27JgZOnSofe7KK6807du3t2ID7w3HcNPuDz74wJDICuFx+vRp67FgK2qHDh1sm5o0aWK9F7169bJR8/369bMJekqXLm2Xh5Ltu+eDLcUK/RQIr776qo3bwdumbY0pGjLij0sgRHwABK37nEbHQTNMWNdff71Tzc9NILz22mvmr3/9q7nvvvuS/tI+ceKEDdRs2rSp9STw9s7Ojj179piePXvasyt4c4QPP5msmZwTTVe9ceNGm3MC7wFLCwgEPAd4JV588UXrScAbUKVKFbN161bDJMiyD67s2MmAiBT22/Mc+f55jhM658+fb58NQj6LdAwqvwTC4cOHzeDBg03Xrl2tQNMlAqkQkEBIhZ6e9YUAExVvSIMGDTIXXXSRL23IqdKcBAJeA9bpeatDIOCKZ7tZTjEE8TqCQKDPzZs3t2/teAp44580aZLZvXu3adasmY1Yf/vtt81DDz1k01QjEhK9aCN/eJY3TwQCHgCC3ebOnWvFAGXyEwFAbALChFwVTz31lI1bqFmzpnnppZes0OA+RNzmzZvN008/bdteo0aNRJsT6Pv8EAjffvutWbx4sUHoIUSjIsYCPVAcb7wEguMGUvPOJsAaK5MWkywH0Ljits5JIBA3sXDhQrN3717zr3/9yy4F1K9f3/Tp0yfPps0uEJicb7zxRjshf/jhh/bsCiZ+4/p3AAAdl0lEQVTuZAXCggULzjxbsGDBswQCAuSPf/yj7QNLPXgGaMP06dPNiBEj7DICn+HaRrTEBALehj/84Q9WHNWuXTvP/Q7iA34IBIJBEWt4137yk58EEZva7BgBCQTHDKLmJEaAdXEC3wii48vYhSsngcCX9r59++zEy0RJTEDZsmXtToO8XtkFAls/eUPPLhBWrVpl3fy87efFzUxqawIO8SCQbyK7B4F/d+/e3dxwww1WmLFLAYEwY8YMu6xRqlSpMwKBYNKbbrrJTlbESTz33HPWgxCVY4b9EAizZs0yW7ZsMUOGDDEXXHBBXoeX7heBswhIIGhQBJYAb7C//e1vDW++F154oe/9yC0GgSURYgZYEkg22VNWgTBlyhSbG6Jly5Z2giZ4EA8CsQdwIY5g27ZtZsmSJQmnqOZ+lgpoI5N9VoFAPn+WdvAE4LFhRwWHaBF4SDzE8OHD7TONGze2ywv0l90QBE2ytILrm/34Ucnm57VAIMCUQNExY8aYevXq+f5/QQ0IBwEJhHDYMbK9eP755+3Ei+s7f/78vnJIZpsjQZfkG2CHRuzi7/zJ3p8SJUrYQMRELnY8EP+wc+fO75TNs0zwrFdnvQhkJJ5j2LBh9s3/Zz/72VnVrF692u6gICcCuxsonwkpp4v2s3ODHRYIA/IgcJ5GVC6vBQKCEBsi7nSJQLoISCCki6TK8YUAEyFr20zOTGx+ioRkBAJv/hs2bDD0I97FskRellMok+UHth1mvUi0hDci64VXg+UIlkR422e3RPYLMYA3oHr16mbt2rV2dwN/z+1iSyrLHQ8//LDdGRGVy0uBEFu6YqeMAhOjMsK86acEgjecVUuGCPAmTNQ2Uf133323r0FwyQiEDGFJulh4cjQwSY6yX4gKhAG7MkjWlEg8Aa7vQ4cOJRVzkXQnHHjQK4GAlya2s6Vdu3YO9FxNCBMBCYQwWTOifWE9fOrUqfbtN5U8A6niC4NASJWBnv8fAa8EAqmUly9fbpd8FJio0ZduAhII6Saq8nwhQHY/UgMTuZ/T+rkXjXJdIODuJ/thbq5+chuQ0AhvDLkPyFjpyjZSL2yYrjq8EAgHDx602xpbtWplc2DITumynsqJEZBA0FgIDQHWYomqZw3dj10NuQmEcwUexuDjBeFgo0KFChlyEBAAyEFL/JtYAiZ2khcRT0AeCLYYxnZDUDb38xlBgXzGMwStUQZlc5FVcf/+/TZokFgNfs99lMu9lMMuBd5EEVpsIyWXAf3SlTcCmRYILAURc7By5UqbOZEAVl0ikG4CEgjpJqryfCVALALr5LxZeR2wlZtA4CAl8iFcd911ZwVSkkSJrYKs8bNDoG3btvbMBXI9EPnPdkG2B5J/gO2G27dvt8KBMxOIBXjvvffMsmXL7K4BdjlwHwzIuIhQYn88ooNyqAuBwJZEhBSeFzwKHOqDyGAXAxMO5RDgSIZG1ripT1fiBDItEPAGYScCc7GzLhHIBAEJhExQVZm+EeAtnK1ebKsjKVGi5xCko8HJ5EHgDZ7kQ2wxJPsdbn3OV0BI0H5OZPz000/tZID7f/z48ebOO+80CA6SGjGJs0OAFMcEFpLRkOfYksiSS506dexPUhyznZKjnLkfIYVXAtc0eQvIX0Ba5jlz5liRUL58eStSyLfAv11KaZ0OW2W6jEwLhGnTptlgUmIPks2rkWkGKj/4BCQQgm9D9SAbAQ4v4kho3OScSujVlZNAeOedd+zbPfkI8CCwlZBJO5YTgEmbifnqq6+2b/Isk7B1cPLkyXayZnInsyGTPgGYZEnkXk5OnD17tk1IRA4IvAIkLtq1a5dhbRoBEBMIJJNCdOAtYImBTHsIA06DREix1RKXNeWvWLHC1kdbyIBISuUBAwaYyy67zCuMoagnkwKBlN1kqCRBVqJ5MUIBVZ3wnIAEgufIVWGmCbCWzumBuNlJIOPV+mxOAoG8AbyJ87b3ySef2IAyvtR/8YtfWAy80SMQmOR5S8fNTwwAIoK3QzIUkueBfvCTLYYcyMSEzq4N+sYb/tixY+0WTzwHLDWwfBATCGREZDkiq0Bggrn11lvtKYzENBDghngg8yH1sgQRS5FMLEJUDllK19jMpEDArpyoSdZMXSKQSQISCJmkq7J9I8AaLecDcOJh586dPWlHsksMTNRkKLz55psNrmOWFRARvLmTTpkYAiYDliM404AJm5z7LEfwGeIh9gxeAMQC3gc8DQgIllxIVoQQ4EwIRAcBiwQnIhTwtjRq1Mgua1A/9xO7gPeDt1Q8Ciw56EqcQKYEwvr16+0yErZXXEji9tCdyRGQQEiOm54KAAHOFiAjIJOjF/npcxMItIVYAs5OyB4XQSAgpx/iHSD5EAGDnC9BYCJv/3gD+Iy/ExPAMgReBu5jWYGzF1hq4B4meSZ9zk3g8CXWpzmGmVMWeYbnW7RoYQUJ8QskMcJzwbZGBATigL9ffvnl5oUXXrCf47nwMpYjAEMrbhMzIRBiordp06bWxrpEINMEJBAyTVjl+0YANzyBfATh8aad6V0NqeRBiG1f5K0+t3TRsS2NTNjsTIhdBGfS39hbJX9nGyP3se0xduGF4N9sf+QZ7kE4sMRA2RzdzFIDpzVydDTubC/ElW+DJEMVp1sgxLY14tXBgxSltNUZMpGKTYCABEICkHRLcAkw8bJGz4SY0/kC6exZKgIhne1IpSxiIPBeMMERN0HSKdjpyhuBdAsEdrCwdZcg19atWyspUt7MobuTJCCBkCQ4PRYcArw1s6OBJEq41zOVcS4MAiE4VnW7pekWCKRTRrixW6Vo0aJud16tCw0BCYTQmFIdORcB3LNsD2SdniA+1t8zcUkgZIJqMMtMp0BgS2ufPn2swCXGRJcIeEVAAsEr0qrHVwJ8yRKLQNAeOQWyrt+nq2ESCOkiGfxy0ikQyEURy4CZiXEbfNrqQaYISCBkiqzKdY4AOQfY0UAeAbYFpvuSQEg30eCWly6BQOKrjh072p0spOHWJQJeEpBA8JK26vKdAImA2MpHNHi638YQCCRn0iUCEGDbaappkGNZMG+77TZBFQHPCUggeI5cFfpNgMRCbPEjARDbCnWJgGsEiJtBxJK4iiWGVIWGa/1Te4JBQAIhGHZSK9NIgFTE7PMn2QzZC7WNL41wVVRaCJAWmwyXJLgiTbbGaFqwqpA8EpBAyCMw3R4OAps3bzbPP/+8TQTEGQa6RMAVAngPODSLTJhksSxbtqwrTVM7IkZAAiFiBld3/0eA3AikHSZrIOcckE1Qlwi4QICU1yyDkRQJL1em8na40Fe1wW0CEghu20etyyABTkMkDqFdu3Y2Y6AuEXCBAN4DjuueOHGiYg9cMEiE2yCBEGHjq+vGrFmzxvzpT38yI0eONBUqVBASEfCVACmV2dbIkducxqlLBPwkIIHgJ33V7TsBzmrgTW3jxo32KGVFi/tukkg3gFTKR44csUeVZz1kK9JQ1HnfCEgg+IZeFbtC4MSJE3ZXA29sZFnUJQJ+EOBwrCFDhpipU6eaEiVK+NEE1SkC3yEggaABIQLGmGPHjtktj2PGjDH169cXExHwlABBs5wT0rRpU3PLLbd4WrcqE4FzEZBA0NgQAWMMW8tIZ0tMwqBBg0ypUqXERQQ8IcDYW716tVm4cKEde9rW6Al2VZIAAQmEBCDplmgQIEBs3Lhxplq1aqZTp06mQIEC0ei4eukrAbxXjLtatWqZtm3bKvbAV2uo8qwEJBA0HkQgC4GtW7eaJ5980r7J1ahRQ2xEIOME8FrNmTPHHiQm70HGcauCPBCQQMgDLN0afgLffPONmTlzpnn55ZfN7Nmzw99h9dB3AnfccYeNf1FSJN9NoQZkIyCBoCEhAtkIsCbcrVs306hRI7u7QdvNNEQyRWDRokVWkM6YMUPjLFOQVW7SBCQQkkanB8NM4NChQ6ZHjx7mgQceMNdcc02Yu6q++UTgn//8p92xwJkgdevW9akVqlYEzk1AAkGjQwTOQWD58uVm7ty5ZvDgwaZSpUriJAJpI0CCruHDh9vjxgcOHJi2clWQCKSTgARCOmmqrFAR4NCcCRMmWNdvr169TKFChULVP3XGPwIbNmwwzz77rBk7dqwpXbq0fw1RzSKQCwEJBA0PEciFwJ49e+yBTv369bMxCbpEIFUCCM9HH33UNGjQwAYn6rTGVInq+UwRkEDIFFmVGxoCBJItW7bMvu3pWOjQmNWXjhAAu379erNgwQLTt29fU7FiRV/aoUpFIBECEgiJUNI9kSYQe+MrWLCgzZWfP3/+SPNQ55MnwFjiQKZLL73UJuPSDpnkWerJzBOQQMg8Y9UQAgIHDhywuxp69+5t96vrEoFkCKxdu9YeLz569GjFHiQDUM94SkACwVPcqizIBHbt2mXdwuPHjzdVqlQJclfUdh8IkISrZcuWdlfMT3/6Ux9aoCpFIG8EJBDyxkt3R5wAb3+8BSIUypcvb3c2sPTATy09RHxwZOk+YoDlBI4S//vf/25WrVplli5dag4fPmw2bdokUCIQCAISCIEwkxrpCoG//OUvZsCAAWc8CCVLljRlypSxpz+SR5+fl19+uSlatKgrTVY7PCJAAOLBgwfN7t27zd69e81nn31m/3CUMzsWmjRpYrp06WJPbmTc6BIB1wlIILhuIbXPKQLsZli3bp0ZOnSoOXLkiNm/f7/Zt2+f/clpkJzhMGnSJFOzZk2n2q3GZJ4AXgO8BPPmzTP169e3gYiMA5Js4WXi6tmzp7nppptM69atM98g1SACKRKQQEgRoB6PFoGJEyfayHO+6LNfuJMrV65syJ1QrFixaIFRby2BFStWmLfeesv079/flChR4iwqCxcutNscH3/8cRETAecJSCA4byI10BUCuJAJMGvRooVp3rz5Wc3asWOH6dChg9myZYsrTVY7PCawc+dOM2XKFNO9e3dTvXr1s2rHy3TnnXfaeyQiPTaOqsszAQmEPCPTA1ElgEDo3LmzGTFihKlatepZGHAt8/bI4Tu6okng+PHjNs9Bq1atcjzkCy/TsGHD7CFNV111VTQhqdeBISCBEBhTqaF+Ezh27Jj1EJBZkUN2sl8PPvigqVGjhunatavfTVX9PhJgGyzj44477jD58uX7Tks4pGny5Ml2mQpPgtIs+2goVR2XgARCXES6QQT+R4CtatOnT7cHOOW0pbFdu3Y2HXO1atWELMIE1qxZY4g1wJNQoEABS+L06dN2ZwNbZBcvXmyFJIGuRYoUiTApdd11AhIIrltI7XOGwPz5881jjz1m21O3bl1zxRVXmMaNG9u/s5UNz8GSJUuUPtcZi/nTkKNHj5pbb73VzJo1y3z++ed2ZwvjAm9Bs2bN7J969eqZ4sWLn+Vh8KfFqlUEciYggaCRIQJ5IEAcwqFDh2yyG3IicGwv+96JWC9cuLDd4ii3cR6AhvRWzuzAY4BwbNOmjf3DlkedvRBSg4e0WxIIITWsuuUdgVOnTtnJoGPHjtZ1LIHgHXtXa2I5avny5aZOnToaD64aSe2KS0ACIS4i3SACiRH48Y9/bFh/lkBIjFeY7+KsBZIm4VXSJQJBJSCBEFTLqd3OEZBAcM4kvjVIAsE39Ko4jQQkENIIU0VFm4AEQrTtn7X3EggaC2EgIIEQBiuqD04QkEBwwgxONEICwQkzqBEpEpBASBGgHheBGAEJBI2FGAEJBI2FMBCQQAiDFdUHJwhIIDhhBicaIYHghBnUiBQJSCCkCFCPi4A8CBoD2QlIIGhMhIGABEIYrKg+OEFAHgQnzOBEIyQQnDCDGpEiAQmEFAHqcRGQB0FjQB4EjYEwEpBACKNV1SdfCMiD4At2JyuVB8FJs6hReSQggZBHYLpdBM5FQAJBYyNGQAJBYyEMBCQQwmBF9cEJAhIITpjBiUZIIDhhBjUiRQISCCkC1OMioBgEjQHFIGgMhJGABEIYrao++UJAHgRfsDtZqTwITppFjcojAQmEPALT7SKgGASNgXgEJBDiEdLnQSAggRAEK6mNgSAgD0IgzORJIyUQPMGsSjJMQAIhw4BVfHQISCBEx9bxeiqBEI+QPg8CAQmEIFhJbQwEAQmEQJjJk0ZKIHiCWZVkmIAEQoYBq/joEJBAiI6t4/VUAiEeIX0eBAISCEGwktoYCAISCIEwkyeNlEDwBLMqyTABCYQMA1bx0SEggRAdW8frqQRCPEL6PAgEJBCCYCW1MRAEJBACYSZPGimB4AlmVZJhAhIIGQas4qNDQAIhOraO11MJhHiE9HkQCEggBMFKamMgCEggBMJMnjRSAsETzKokwwQkEDIMWMVHh4AEQnRsHa+nEgjxCOnzIBCQQAiCldTGQBCQQAiEmTxppASCJ5hVSYYJSCBkGLCKjw4BCYTo2DpeTyUQ4hHS50EgIIEQBCupjYEgIIEQCDN50kgJBE8wq5IME5BAyDBgFR8dAhII0bF1vJ5KIMQjpM+DQEACIQhWUhsDQUACIRBm8qSREgieYFYlGSYggZBhwCo+OgQkEKJj63g9lUCIR0ifB4GABEIQrKQ2BoKAHwLhq6++MuvXrze7d+823/ve90y9evVMw4YNzeeff24OHTpkateubVauXGmaNm1qzj///IQ5/vvf/zYFCxa0f7Jex48fNxs3bjQXX3yxqV69esLlxW7cvHmzKVy4sLngggvMF198YWrVqmXy58+fUDn0NV++fIaf77//vmnZsmVCz/lxkwSCH9RVZ7oJSCCkm6jKiywBPwTCE088YdasWWMaNGhg/vvf/5rVq1ebAQMGmG+++cYKB/7+2GOPmUGDBplixYolbJtHH33UNGnSxDRv3vw7z6xbt87cc8895qqrrjJPPfVUwuXFbhw8eLCpUKGCfX7Pnj2mTZs2VjDEu7799lszdepUU7ZsWVOnTh0zYcIEM3LkyHiP+fa5BIJv6FVxGglIIKQRpoqKNgGvBcLevXtNq1atzPjx4+1kjihAMGzatMl06NDBMJkziS5dutT8/Oc/NwUKFDBvvPGG+fjjj+3EX7duXbNt2zbD5Mvvjh49aq6//nrz5Zdfmttvv90wyd1///2mXLly1rD/93//Z5577jnzyiuvmM8++8zEvAHbt283p06dMn/729/M6dOnTbt27Wxb+D1ei7Vr15rrrrvOejf69u1rvQ+078CBA9bbQX0zZ860XgXaSX27du2y9fC7X/7yl+bkyZPm7rvvNlWqVLE/aXf79u3ts6+//rrZt2+fvQ+vxs6dO81//vMfs2PHDuulQIRcdNFFng5OCQRPcauyDBGQQMgQWBUbPQJeC4RJkybZt+p33nnHnHfeed8BPn/+fPv7hx9+2L6tv/nmm3ZyZ1LH2/Duu+9a78KWLVuswLj22mvNkSNHTLVq1Uzr1q2tl4D+DB061FxyySW2bCZ0PBGIkjFjxtiJulu3bmb48OHmmWeeMZ07d7YTe+nSpU2XLl3s5+XLl7dv/IiFxx9/3Lz00ktWIFAPywR33XWXadGihWnWrJkVKAiAgQMHWnHCEgJeBkTC73//e9OzZ0/bFoQBbd+wYYPBI4FYQRhMnjzZLFu2zAokPCC08/Dhw3ZZ4sUXX8yTByXV0SuBkCpBPe8CAQkEF6ygNoSCgNcCYfTo0dZLsHDhwjP8eMtnol2xYoVdeogJhHHjxpmxY8earl272rfpBQsWmO9///vWvc/b+Lx588zy5cvN7Nmz7eTK5I4n4LbbbjtT9nvvvWc9Cr/5zW/s2/0nn3xin6EdxDsgAIh9uO+++2zMAwIGkYIXAaHBJL5161ZTuXLlMwKhaNGi5q233rLtxSNCHYiVadOmWa/I22+/bcugHspAQDRu3Nh06tTJeg569+5tlzouu+wyK2roP4IE4YOIQfQgLBBBVatW9WycSSB4hloVZZCABEIG4aroaBHwWiC8+uqr5qGHHrLegeLFi1vYxCAw2V566aV2so0JBJYamEhx9ZcoUcIQbMiEjRse9z2TO8/i6mci7tOnz1kCYciQIVZ04JHgecQEb+xM1AiNfv36WaHA8zVr1jSLFi2yZbLcMGLECIMY+Oijj+wkH/MgUDfLBAiCEydOmIMHD1qRgUeCAMb9+/db7wN9yi4QFi9ebOucPn269Vo88sgjVrT86Ec/sp4DxAxlI3YQMckEVSY7giUQkiWn51wiIIHgkjXUlkAT8FogMEnfcMMNdu29V69ednLt0aOHjS/gLZrJOSYQeJvHM8CkyQT67LPPmjJlythnmJgREFkFAl4CXPS8fXOxc4A3+mHDhlmBwPXrX//aTuJFihSxb+y48YlDYDK++eabbX2zZs0yF154oenfv78VHEz0FStWPCMQ8CY8/fTTdrkBbwFtoDw8IzNmzLBLEnhI+AyBwvIEnPEg4FWgvwiHK664wvab2IZChQpZYXDvvfdKIAT6f5Qa7zcBCQS/LaD6Q0PAa4EAOHYqMEnyls31u9/97kxgYtYYhFWrVllPA+5/ti6y/RGRwNLCsWPHzhIIrOdPmTLFruuzXIC3ILakEdv6uGTJEvscgoMlB7wHrPfj2icAkjd3PAAEMN544412iYN4hawxCMQbIDTwBhCcyFII3g/qZLmAsvE6EHOAl2LUqFHWa0DbESUTJ0603glEztVXX22XTvBGsLTAkoM8CKH576WO+EBAAsEH6KoynAT8EAiQ/Prrr60ngGUGAvpyuxADuN+ZpNnVcK6LnQ3sBGBSZtLP7WLSL1mypLnllltsLoZSpUqdWd5ARBDcyBJAbvUxkZMPgfYTcEkeBurnOZYhKJfnERsIFP7NRTvpD7sn2AKZPVjTr5GmJQa/yKvedBKQQEgnTZUVaQJ+CQS/obO0gDhp27btGTHxwQcfWO/Dk08+6XfzfKlfAsEX7Ko0zQQkENIMVMVFl0BUBQLeC97oCX6MvcETs8DvK1WqFMkBIYEQSbOHrtMSCKEzqTrkF4GoCgS/eLtcrwSCy9ZR2xIlIIGQKCndJwJxCEggaIjECEggaCyEgYAEQhisqD44QUACwQkzONEICQQnzKBGpEhAAiFFgHpcBGIEJBA0FuRB0BgIEwEJhDBZU33xlYAEgq/4napcHgSnzKHGJElAAiFJcHpMBLITkEDQmJAHQWMgTAQkEMJkTfXFVwISCL7id6pyeRCcMocakyQBCYQkwekxEZAHQWPgXAQkEDQ2wkBAAiEMVlQfnCAgD4ITZnCiERIITphBjUiRgARCigD1uAjECEggaCwoBkFjIEwEJBDCZE31xVcCEgi+4neqcnkQnDKHGpMkAQmEJMHpMRFQDILGgGIQNAbCTEACIczWVd88JSAPgqe4na5MHgSnzaPGJUhAAiFBULpNBOIRkECIRyg6n0sgRMfWYe6pBEKYrau+eUpAAsFT3E5XJoHgtHnUuAQJSCAkCEq3iUA8AhII8QhF53MJhOjYOsw9lUAIs3XVN08JSCB4itvpyiQQnDaPGpcgAQmEBEHpNhGIR0ACIR6h6HwugRAdW4e5pxIIYbau+uYpAQkET3E7XZkEgtPmUeMSJCCBkCAo3SYC8QhIIMQjFJ3PJRCiY+sw91QCIczWVd88JSCB4ClupyuTQHDaPGpcggQkEBIEpdtEIB4BCYR4hKLzuQRCdGwd5p5KIITZuuqbpwQkEDzF7XRlEghOm0eNS5CABEKCoHSbCMQjIIEQj1B0PpdAiI6tw9xTCYQwW1d985SABIKnuJ2uTALBafOocQkSkEBIEJRuE4F4BCQQ4hGKzucSCNGxdZh7KoEQZuuqb54SkEDwFLfTlUkgOG0eNS5BAhIICYLSbSIQj4AEQjxC0flcAiE6tg5zTyUQwmxd9c1TAhIInuJ2ujIJBKfNo8YlSEACIUFQuk0E4hGQQIhHKDqfSyBEx9Zh7qkEQpitq755SgCBcOWVV5rzzjvP03pVmXsE5s6da3bs2GEKFy7sXuPUIhFIkIAEQoKgdJsIxCOwbds2c/z48Xi36fOIEEAs5suXLyK9VTfDSEACIYxWVZ9EQAREQAREIEUCEggpAtTjIiACIiACIhBGAhIIYbSq+iQCIiACIiACKRKQQEgRoB4XAREQAREQgTASkEAIo1XVJxEQAREQARFIkcD/A49lmGHj+cKCAAAAAElFTkSuQmCC;" vertex="1" parent="1">
                    <mxGeometry x="341" y="382" width="330" height="268.44" as="geometry"/>
                </mxCell>
                <mxCell id="3" value="&lt;font color=&quot;#000000&quot;&gt;&amp;lt;&amp;lt;keyword&amp;gt;&amp;gt;&lt;br&gt;&lt;b&gt;ModelControler&lt;/b&gt;&lt;br&gt;&lt;/font&gt;" style="swimlane;fontStyle=0;align=center;verticalAlign=top;childLayout=stackLayout;horizontal=1;startSize=41;horizontalStack=0;resizeParent=1;resizeParentMax=0;resizeLast=0;collapsible=0;marginBottom=0;html=1;fillColor=#bac8d3;strokeColor=#23445d;" vertex="1" parent="1">
                    <mxGeometry x="110" y="160" width="273" height="189" as="geometry"/>
                </mxCell>
                <mxCell id="4" value="&lt;font color=&quot;#000000&quot;&gt;attributes&lt;/font&gt;" style="text;html=1;strokeColor=none;fillColor=none;align=center;verticalAlign=middle;spacingLeft=4;spacingRight=4;overflow=hidden;rotatable=0;points=[[0,0.5],[1,0.5]];portConstraint=eastwest;" vertex="1" parent="3">
                    <mxGeometry y="41" width="273" height="20" as="geometry"/>
                </mxCell>
                <mxCell id="5" value="&lt;font color=&quot;#000000&quot;&gt;- comands: list&lt;/font&gt;" style="text;html=1;strokeColor=none;fillColor=none;align=left;verticalAlign=middle;spacingLeft=4;spacingRight=4;overflow=hidden;rotatable=0;points=[[0,0.5],[1,0.5]];portConstraint=eastwest;" vertex="1" parent="3">
                    <mxGeometry y="61" width="273" height="20" as="geometry"/>
                </mxCell>
                <mxCell id="7" value="&lt;font color=&quot;#000000&quot;&gt;...&lt;/font&gt;" style="text;html=1;strokeColor=none;fillColor=none;align=left;verticalAlign=middle;spacingLeft=4;spacingRight=4;overflow=hidden;rotatable=0;points=[[0,0.5],[1,0.5]];portConstraint=eastwest;" vertex="1" parent="3">
                    <mxGeometry y="81" width="273" height="20" as="geometry"/>
                </mxCell>
                <mxCell id="8" value="" style="line;strokeWidth=1;fillColor=none;align=left;verticalAlign=middle;spacingTop=-1;spacingLeft=3;spacingRight=3;rotatable=0;labelPosition=right;points=[];portConstraint=eastwest;" vertex="1" parent="3">
                    <mxGeometry y="101" width="273" height="8" as="geometry"/>
                </mxCell>
                <mxCell id="9" value="&lt;font color=&quot;#000000&quot;&gt;methods&lt;/font&gt;" style="text;html=1;strokeColor=none;fillColor=none;align=center;verticalAlign=middle;spacingLeft=4;spacingRight=4;overflow=hidden;rotatable=0;points=[[0,0.5],[1,0.5]];portConstraint=eastwest;" vertex="1" parent="3">
                    <mxGeometry y="109" width="273" height="20" as="geometry"/>
                </mxCell>
                <mxCell id="10" value="&lt;font color=&quot;#000000&quot;&gt;+ register(model_name: str, model: IModel)&lt;br&gt;&lt;/font&gt;" style="text;html=1;strokeColor=none;fillColor=none;align=left;verticalAlign=middle;spacingLeft=4;spacingRight=4;overflow=hidden;rotatable=0;points=[[0,0.5],[1,0.5]];portConstraint=eastwest;" vertex="1" parent="3">
                    <mxGeometry y="129" width="273" height="20" as="geometry"/>
                </mxCell>
                <mxCell id="11" value="&lt;font color=&quot;#000000&quot;&gt;+ execute(model_name: str)&lt;br&gt;&lt;/font&gt;" style="text;html=1;strokeColor=none;fillColor=none;align=left;verticalAlign=middle;spacingLeft=4;spacingRight=4;overflow=hidden;rotatable=0;points=[[0,0.5],[1,0.5]];portConstraint=eastwest;" vertex="1" parent="3">
                    <mxGeometry y="149" width="273" height="20" as="geometry"/>
                </mxCell>
                <mxCell id="12" value="&lt;font color=&quot;#000000&quot;&gt;+ show_history()&lt;br&gt;&lt;/font&gt;" style="text;html=1;strokeColor=none;fillColor=none;align=left;verticalAlign=middle;spacingLeft=4;spacingRight=4;overflow=hidden;rotatable=0;points=[[0,0.5],[1,0.5]];portConstraint=eastwest;" vertex="1" parent="3">
                    <mxGeometry y="169" width="273" height="20" as="geometry"/>
                </mxCell>
                <mxCell id="13" value="&lt;font color=&quot;#000000&quot;&gt;&amp;lt;&amp;lt;keyword&amp;gt;&amp;gt;&lt;br&gt;&lt;b&gt;IModel&lt;/b&gt;&lt;br&gt;{abstract}&lt;/font&gt;" style="swimlane;fontStyle=0;align=center;verticalAlign=top;childLayout=stackLayout;horizontal=1;startSize=55;horizontalStack=0;resizeParent=1;resizeParentMax=0;resizeLast=0;collapsible=0;marginBottom=0;html=1;fillColor=#bac8d3;strokeColor=#23445d;" vertex="1" parent="1">
                    <mxGeometry x="439" y="160" width="251" height="123" as="geometry"/>
                </mxCell>
                <mxCell id="16" value="&lt;font color=&quot;#000000&quot;&gt;...&lt;/font&gt;" style="text;html=1;strokeColor=none;fillColor=none;align=left;verticalAlign=middle;spacingLeft=4;spacingRight=4;overflow=hidden;rotatable=0;points=[[0,0.5],[1,0.5]];portConstraint=eastwest;" vertex="1" parent="13">
                    <mxGeometry y="55" width="251" height="20" as="geometry"/>
                </mxCell>
                <mxCell id="17" value="" style="line;strokeWidth=1;fillColor=none;align=left;verticalAlign=middle;spacingTop=-1;spacingLeft=3;spacingRight=3;rotatable=0;labelPosition=right;points=[];portConstraint=eastwest;" vertex="1" parent="13">
                    <mxGeometry y="75" width="251" height="8" as="geometry"/>
                </mxCell>
                <mxCell id="18" value="&lt;font color=&quot;#000000&quot;&gt;methods&lt;/font&gt;" style="text;html=1;strokeColor=none;fillColor=none;align=center;verticalAlign=middle;spacingLeft=4;spacingRight=4;overflow=hidden;rotatable=0;points=[[0,0.5],[1,0.5]];portConstraint=eastwest;" vertex="1" parent="13">
                    <mxGeometry y="83" width="251" height="20" as="geometry"/>
                </mxCell>
                <mxCell id="20" value="&lt;font color=&quot;#000000&quot;&gt;+ execute()&lt;br&gt;&lt;/font&gt;" style="text;html=1;strokeColor=none;fillColor=none;align=left;verticalAlign=middle;spacingLeft=4;spacingRight=4;overflow=hidden;rotatable=0;points=[[0,0.5],[1,0.5]];portConstraint=eastwest;" vertex="1" parent="13">
                    <mxGeometry y="103" width="251" height="20" as="geometry"/>
                </mxCell>
            </root>
        </mxGraphModel>
    </diagram>
</mxfile>